<?xml version="1.0" encoding="UTF-8"?>
<svg id="Layer_1" data-name="Layer 1" xmlns="http://www.w3.org/2000/svg" viewBox="0 0 595.28 595.28">
  <defs>
    <style>
      .cls-1 {
        fill: #231f20;
      }

      .cls-2 {
        fill: none;
        stroke: #231f20;
        stroke-width: 4px;
      }
    </style>
  </defs>
  <g>
    <g>
      <path class="cls-2" d="M132.57,413.44c.71-5.81,1.06-12.87,1.23-21.85,1.59-33.84-3.7-43-28.2-48.46-11.45-2.65-21.68-4.94-34.72-6.7l-.17-5.29,12.33-18.68c13.04,1.76,20.62,3.52,31.72,5.99,28.73,6.87,38.42,18.68,37.36,44.59-.53,9.34-2.64,25.2-5.81,43.53l-10.05,6.87h-3.7ZM71.77,413.44c-.17-17.62,1.59-38.07,4.58-50.75l16.74-8.99,4.05.71c-1.76,12.69-3.52,36.83-3.7,50.23l-19.03,8.81h-2.65Z"/>
      <path class="cls-2" d="M166.58,388.77c14.8-2.29,24.14-4.23,32.43-6.87,10.75-3.35,14.45-8.99,13.92-21.15-.35-12.33-10.92-17.97-46.35-24.67l-.18-5.29,11.99-18.33c40.53,6.7,48.99,13.39,48.99,38.95,0,13.22-2.47,28.37-6.7,41.59-3.17,9.87-29.08,19.21-60.27,21.67l6.17-25.9Z"/>
      <path class="cls-2" d="M249.22,377.31l-3.88-1.23c.35-19.74,1.59-35.42,3.88-51.28l22.2-12.69,3.7,1.41c-4.23,21.5-6.52,35.25-8.81,52.69l-17.09,11.1Z"/>
      <path class="cls-2" d="M333.63,413.44c.71-6.7.88-12.34.88-21.85,1.24-33.13-2.82-42.3-21.32-48.46-7.4-2.47-15.69-4.58-26.26-6.7l-.17-5.29,12.34-18.68c8.63,1.59,13.74,2.82,23.97,5.82,24.14,7.05,30.49,15.86,29.78,41.24-.35,12.69-2.99,35.42-5.46,47.05l-10.4,6.87h-3.35Z"/>
      <path class="cls-2" d="M367.29,388.77c14.8-2.29,24.14-4.23,32.43-6.87,10.75-3.35,14.45-8.99,13.92-21.15-.35-12.33-10.92-17.97-46.35-24.67l-.18-5.29,11.99-18.33c40.53,6.7,48.99,13.39,48.99,38.95,0,13.22-2.47,28.37-6.7,41.59-3.17,9.87-29.08,19.21-60.27,21.67l6.17-25.9Z"/>
      <path class="cls-2" d="M504.92,413.44c.7-5.81,1.06-12.87,1.23-21.85,1.59-33.84-3.7-43-28.2-48.46-11.45-2.65-21.67-4.94-34.72-6.7l-.17-5.29,12.33-18.68c13.04,1.76,20.62,3.52,31.72,5.99,28.73,6.87,38.42,18.68,37.36,44.59-.53,9.34-2.64,25.2-5.81,43.53l-10.05,6.87h-3.7ZM444.12,413.44c-.17-17.62,1.59-38.07,4.58-50.75l16.74-8.99,4.05.71c-1.76,12.69-3.52,36.83-3.7,50.23l-19.03,8.81h-2.65Z"/>
    </g>
    <g>
      <path class="cls-2" d="M344.92,220.42l-3.88-1.23c.35-19.74,1.59-35.42,3.88-51.28l22.2-12.69,3.7,1.41c-4.23,21.5-6.52,35.25-8.81,52.69l-17.09,11.1Z"/>
      <path class="cls-2" d="M378.93,232.4c28.37-1.94,53.22-6.52,55.34-10.22,0-4.76.17-7.58,0-10.4-.71-21.68-3.17-23.97-35.6-33.66h-1.23c-2.64,12.69-1.06,12.34,13.75,19.74l-7.4,19.74c-15.51-3.17-22.2-8.99-22.2-19.56,0-8.64,4.05-21.5,13.22-42.47h10.4c34.54,7.58,43.88,14.98,44.23,35.07.18,7.05-.7,16.74-2.29,27.84l-6.34,22.73c-2.29,8.46-32.07,15.68-69.08,16.74l7.22-25.55Z"/>
      <path class="cls-2" d="M471.27,257.07l5.46-31.9c23.44-17.8,30.14-24.14,30.31-28.55.17-3.53-1.23-3.88-22.73-8.28-21.85-4.4-24.14-9.16-22.73-48.99l14.1-10.92h4.23c.53,30.84-2.47,32.07,13.04,35.42l15.51,3.35c12.16,2.65,16.74,8.28,16.04,19.92-.53,17.8-19.03,44.23-48.82,69.96h-4.41Z"/>
    </g>
    <path class="cls-1" d="M399.83,276.05c3.68-3.92,10.28-1.69,13.91,1.18s7.79,9.15,3.87,13.29c-1.74,1.84-4.39,2.4-6.84,2.46-2.77.06-5.78-.37-8.31-1.54s-4.49-3.12-4.49-5.96,2.62-3.87,5.15-4.22c3.29-.46,7.66-1.05,10.36,1.38.93.84,1.67,2.05,1.32,3.32-.3,1.09-1.11,1.92-2.27,1.85-2.57-.17-2.56,3.83,0,4,4.17.27,7.05-4.21,6.18-8.01-.99-4.33-5.44-6.49-9.5-6.84-2.29-.2-4.63.09-6.89.41-2.09.29-4.13.87-5.78,2.25-3.11,2.61-3.15,7.29-1.3,10.64,1.98,3.58,6.08,5.4,9.92,6.17s7.71.92,11.24-.47,6.29-4.52,6.67-8.53c.36-3.8-1.52-7.5-3.84-10.36-4.89-6.02-16.02-10.47-22.24-3.84-1.76,1.88,1.06,4.71,2.83,2.83h0Z"/>
    <path class="cls-1" d="M475.48,271.52c.05-.08.15-.2.18-.28-.08.3-.24.3-.04.08.31-.34-.07.08-.09.04,0-.02.24-.16.26-.17.38-.26-.09.12-.1.02,0-.01.28-.1.3-.1.1-.03.21-.04.31-.07.32-.1-.54.03,0,0,.22-.01.44.04.66.02-.51.03-.31-.05-.09,0,.11.02.22.05.33.08s.21.07.32.11c.39.13-.42-.22-.06-.03.22.12.45.31.67.4-.39-.16-.24-.2-.06-.03.08.07.16.15.23.23.21.23.03.23-.04-.06.02.08.13.2.17.28.13.24.02.3-.01-.08,0,.1.08.22.1.32l.03.11c.04.23.04.2,0-.09.07.14,0,.43.02.58.02.47.12-.42,0,.04-.04.14-.06.28-.1.42-.04.12-.1.56,0,.06-.02.13-.14.28-.2.39-.07.13-.16.25-.23.38-.25.41.28-.29-.05.07-.24.26-.48.5-.75.73.38-.32,0,0-.08.04-.13.08-.26.16-.39.23-.13.07-.27.16-.41.2.49-.14,0-.02-.09.01-.14.05-.29.09-.44.12l-.15.03c-.23.04-.2.04.09,0-.19.1-.86.07-1.05,0,.46.18.08,0-.06-.03s-.29-.07-.44-.12c-.13-.04-.32-.07-.43-.15.41.27.03,0-.07-.05-.27-.14-.52-.3-.77-.47.41.28.01,0-.06-.06-.15-.13-.29-.27-.42-.42-.1-.11-.42-.33-.06-.06-.1-.07-.18-.27-.25-.37-.08-.13-.14-.26-.21-.39-.23-.42.1.39-.02-.07-.04-.14-.09-.28-.12-.43l-.03-.15c-.04-.22-.03-.19.01.11-.04-.04-.02-.37-.02-.42,0-.09,0-.19.01-.28.02-.22.01-.19-.02.11-.08-.17.16-.65.21-.82.13-.45-.21.37.01-.05.07-.13.13-.25.2-.38s.15-.24.23-.36c.25-.39-.3.29.04-.04.1-.1.19-.21.29-.3.07-.06.14-.13.21-.19-.22.17-.25.19-.07.06.12-.07.23-.15.35-.22.08-.04.16-.09.25-.13-.27.11-.3.12-.09.04.13-.04.27-.07.4-.12.22-.04.18-.04-.12,0,.1-.01.2-.02.29-.02.09,0,.36-.03.44.02-.29-.04-.33-.04-.1,0,.09.02.19.05.28.07l.14.05c.21.08.18.07-.07-.04.15,0,.38.22.51.29.41.22-.28-.28.06.04.14.13.28.27.42.41.34.33-.2-.35.05.05.1.17.2.33.29.5.23.4-.09-.39.02.05.03.14.17.4.13.55l-.04-.25c0,.09,0,.19,0,.29,0,.1,0,.19-.02.29.04-.29.04-.33,0-.1-.23,1.02.31,2.21,1.4,2.46,1.02.23,2.21-.31,2.46-1.4.96-4.2-3.28-8.33-7.48-7.04-1.77.54-3.26,1.89-4.01,3.58-.86,1.92-.86,3.94.06,5.84.86,1.78,2.55,3.05,4.38,3.72s3.99.46,5.77-.44c3.48-1.77,5.3-6.46,2.6-9.65-2.31-2.73-7.33-2.93-9.2.38-.52.91-.25,2.23.72,2.74s2.19.25,2.74-.72h0Z"/>
    <path class="cls-1" d="M475.35,289.23c.12-.12.24-.24.37-.35-.32.26.13-.05.22-.11.07-.04.15-.08.22-.12-.02.01-.31.11-.09.04s.42-.13.64-.19c.08-.02.16-.03.25-.05-.04,0-.33,0-.11.02.19.01.4-.02.59-.02.17,0,.34.02.51.04-.43-.05.17.05.31.09.17.04.33.1.49.16.08.03.33.16,0,0,.08.04.16.07.23.12.15.09.3.17.44.26.07.04.14.1.21.14-.32-.22,0,0,.06.06.12.12.24.24.36.36.15.16-.02-.05-.04-.07.07.09.13.19.19.28.09.15.18.31.25.46-.15-.31.08.25.12.38.05.18.09.35.12.53-.06-.38,0,.15,0,.28,0,.18-.01.36-.02.55,0,.23.02-.04.02-.08-.02.15-.05.3-.09.45-.04.18-.09.36-.14.53-.03.09-.24.63-.1.3-.18.4-.4.77-.65,1.13.18-.26-.08.1-.15.18-.12.14-.25.27-.39.4-.09.08-.18.17-.28.25.03-.02.22-.16.04-.03s-.36.24-.55.35c-.11.06-.23.12-.35.18.04-.02.22-.09,0,0-.19.07-.38.14-.58.19-.23.06-.46.12-.69.16.3-.05-.27.02-.38.02-.24.01-.48,0-.71,0-.09,0-.58-.05-.28-.01-.47-.07-.94-.19-1.4-.34-.1-.03-.19-.07-.29-.11-.32-.12.22.11-.09-.04-.19-.09-.37-.18-.55-.28-.21-.12-.41-.25-.62-.38,0,0-.27-.19-.13-.09.11.08-.17-.14-.2-.17-.73-.63-1.2-1.21-1.44-2.01,0-.01-.08-.39-.04-.14.04.22,0-.06,0-.09,0-.07.01-.66,0-.43s.06-.24.08-.32c.03-.11.07-.22.11-.32.1-.27-.14.26,0,.01.09-.15.17-.3.26-.45.03-.05.25-.34.1-.15-.13.17.05-.06.07-.07.3-.31.59-.62.94-.89-.24.19.14-.09.21-.14.19-.13.38-.24.58-.36.17-.1.34-.19.52-.28.09-.04.18-.09.27-.13.04-.02.49-.22.3-.14,1.49-.61,3.12-.9,4.85-.81.14,0,.28.02.42.03-.22-.02,0,0,.09.01.27.05.54.11.8.19.1.03.19.06.29.1.32.11-.21-.11.09.03.25.12.48.25.71.4.19.13.04.03,0,0,.09.08.18.16.27.24.05.05.1.12.15.17.15.14-.15-.29,0,.02.04.08.26.53.17.31s.08.3.11.42c.12.44.03-.17.03.15,0,.2,0,.41,0,.61,0,.33.09-.3-.03.14-.02.09-.21.63-.1.39s-.12.19-.16.26c-.15.3.01-.02.06-.07-.04.05-.13.17-.19.19,0,0,.33-.17.13-.1-.08.03-.23.13-.3.17.08-.05.3-.05.15-.08-.08-.01-.29.07-.36.08-1.07.18-1.66,1.49-1.4,2.46.31,1.13,1.39,1.58,2.46,1.4,2.39-.41,3.72-2.81,3.76-5.07.04-2.51-1.43-4.68-3.71-5.68-2.48-1.08-5.34-.94-7.92-.28-2.28.58-4.66,1.77-6.18,3.62-1.81,2.2-2.17,5.17-.54,7.61,1.49,2.23,3.99,3.83,6.64,4.26s5.44-.15,7.53-2c1.81-1.61,2.93-4.18,2.81-6.6-.14-2.98-1.95-5.36-4.71-6.43-2.51-.97-5.54-.49-7.45,1.45-1.81,1.84,1.02,4.67,2.83,2.83h0Z"/>
    <path class="cls-1" d="M444.54,438.81c20.72-.8,41.44-1.59,62.16-2.39l-2-2c0,4.81,0,9.62,0,14.44l2-2c-20.66-.53-41.35.19-61.92,2.15l1.41,3.41c3.05-2.65,3.66-6.66,4.02-10.46.18-1.92.3-3.85.79-5.73.23-.89.24-1.36,1.21-1.4,1.29-.05,2.59.03,3.88.03,10.99.05,21.97-.34,32.93-1.17,6.18-.47,12.34-1.08,18.49-1.83l-2-2c.05.98.1,1.96.15,2.95.13,2.56,4.13,2.58,4,0-.05-.98-.1-1.96-.15-2.95s-.88-2.14-2-2c-11.32,1.37-22.69,2.28-34.08,2.71-5.61.21-11.23.31-16.85.29-2.36,0-5.76-.67-7.7,1.03-1.55,1.36-1.91,3.72-2.19,5.65-.56,3.94-.02,9.18-3.32,12.04-1.26,1.09-.29,3.58,1.41,3.41,20.58-1.95,41.26-2.67,61.92-2.15,1.08.03,2-.94,2-2,0-4.81,0-9.62,0-14.44,0-1.05-.92-2.04-2-2-20.72.8-41.44,1.59-62.16,2.39-2.57.1-2.58,4.1,0,4h0Z"/>
    <path class="cls-1" d="M374.82,430.27c2.62-.61,5.53-1.16,8.06-.48,2.33.62,3.72,2.51,3.35,4.93-.13.88-.68,2.15-1.3,2.94-.87,1.11-2.05,1.84-3.43,2.27-2.72.86-6.34.75-8.91-.46-.54-.25-1.03-.54-1.37-.95.11.13-.28-.51-.18-.27-.09-.22-.1-.35.01-.71.41-1.31,1.58-2.66,2.49-3.68,1.94-2.18,4.44-3.84,7.39-3.68,2.43.13,4.56,1.82,4.67,4.35.13,2.78-1.58,5.11-4.14,6.23-2.74,1.2-6.46,1.18-8.95-.61-.53-.38-.97-.88-1.29-1.45-.23-.42-.34-.97-.34-1.46s.14-1.15.36-1.54c.24-.43.61-.78.85-.87,1.01-.39,1.7-1.34,1.4-2.46-.26-.96-1.45-1.79-2.46-1.4-3.87,1.49-5.24,6.31-3.21,9.85,2.16,3.77,7.06,5.11,11.14,4.65,4.36-.49,8.44-2.88,10.03-7.13,1.47-3.91.27-8.54-3.36-10.78s-8.4-1.6-11.8.73c-1.86,1.27-3.36,2.9-4.68,4.71s-2.68,3.98-1.97,6.33c1.28,4.23,7.22,5.18,10.96,5.13,4.28-.05,8.65-1.79,10.8-5.67s1.6-9.13-2.41-11.73c-3.72-2.41-8.74-1.59-12.79-.64-2.51.59-1.44,4.45,1.06,3.86h0Z"/>
    <path class="cls-1" d="M373.41,454.77c.43-.78.94-1.26,1.73-1.6.2-.09.99-.3,1.18-.33.33-.05,1.03-.06,1.51-.01.72.07,1.73.41,2.52,1,0,0,.67.68.68.69.34.46.52.87.67,1.39.53,1.88-.06,4.1-1.39,5.68-1.52,1.8-3.98,2.55-6.31,2.05-2.1-.45-5.3-2.31-4.75-4.91.28-1.33,1.41-2.51,2.37-3.4s2.12-1.65,3.35-2.12c2.45-.95,5.14-.87,7.32.69,1.77,1.27,3.1,3.53,2.68,5.76-.51,2.72-3.1,4.64-5.72,5.1-3.23.57-6.58-1-8.98-3.06-.82-.7-2.02-.8-2.83,0-.72.72-.82,2.12,0,2.83,3.23,2.78,7.44,4.74,11.79,4.24,3.68-.42,7.26-2.61,8.87-6.02,1.74-3.67.8-7.81-1.93-10.72s-6.7-3.95-10.54-3.17-7.76,3.58-9.57,7.12c-2.12,4.13.29,8.59,4.2,10.55,3.44,1.72,7.9,1.76,11.1-.53,2.82-2.02,4.66-5.43,4.54-8.94-.14-3.87-2.71-7.15-6.52-8.01-3.55-.8-7.58.37-9.4,3.69-1.24,2.26,2.21,4.28,3.45,2.02h0Z"/>
    <path class="cls-1" d="M380.88,362.88c.04.23.16-.22,0,.02.34-.55-.24.29.14-.26-.18.26.28-.18.04-.03.19-.12.37-.25.58-.34.5-.21,1.11-.18,1.83.34.78.57,1.32,1.43,1.79,2.25.32.56,1.55,2.26,1.21,2.9-.25.48-1.49.92-1.76,1.02-.87.33-1.86.56-2.56.61-1.68.13-3.16-.05-4.46-.81-.57-.33-.98-.71-1.27-1.21-.34-.56-.56-1.29-.46-2.06.25-1.86,1.92-3.37,3.61-3.99,2.02-.74,4.33-.24,6.22.68,1.12.55,2.2,1.22,3.19,1.98.62.48,2.06,1.36,2.07,2.21.01.94-1.25,1.89-1.92,2.36-1.01.72-2.13,1.24-3.32,1.56-2.27.62-4.8.52-6.96-.46-.98-.45-2.15-.28-2.74.72-.5.86-.27,2.29.72,2.74,3.17,1.44,6.67,1.78,10.05.86,3.16-.86,6.68-2.95,7.87-6.16,1.48-4-2.87-6.96-5.84-8.69s-6.74-2.81-10.15-1.75c-3.12.97-6.03,3.56-6.67,6.87-.58,3.03.75,5.96,3.31,7.62,2.32,1.51,5.27,1.77,7.95,1.37,2.88-.43,6.92-2.02,7.13-5.4.12-1.92-1.08-3.92-2.07-5.51-1.06-1.7-2.46-3.22-4.39-3.91-3.53-1.27-7.77,1.64-7.01,5.49.21,1.06,1.47,1.67,2.46,1.4,1.11-.3,1.61-1.4,1.4-2.46h0Z"/>
    <path class="cls-1" d="M326.54,438.05c1.33-3.07,4.05-5.1,7.3-5.76,3.02-.62,7.06.33,8.44,3.39s-2.41,5.97-4.97,6.78c-2.86.91-6.33.63-8.62-1.47-4.12-3.78-2.66-12.77,3.52-13.17,2.75-.18,5.73,1.27,7.15,3.71,1.76,3.02.1,6.61-2.3,8.92-2.84,2.74-7.72,4.9-10.66,1.13-2.33-2.98-.39-7.75,3.46-8.16,1.07-.12,2-.84,2-2,0-.99-.92-2.12-2-2-5.34.57-9.53,5.65-8.32,11.07.56,2.48,2.32,4.71,4.5,5.97,2.5,1.45,5.45,1.52,8.12.5,5.06-1.93,9.62-6.62,9.94-12.23.27-4.75-3.25-8.65-7.49-10.23s-9.26-.25-12.04,3.54-2.9,8.7-.99,12.69c4.32,9.03,19.68,7.85,22.69-1.69,1.99-6.33-5-10.91-10.52-10.93-5.22-.02-10.57,3.06-12.67,7.92-.43.99-.29,2.15.72,2.74.84.49,2.31.28,2.74-.72h0Z"/>
    <path class="cls-1" d="M164.7,429.49c10.57-.01,21.15-.02,31.72-.04,5.29,0,10.57-.01,15.86-.02,1.24,0,2.48,0,3.72,0,.96,0,2.21-.14,3.02.5.75.58.74,1.75.71,2.78-.1,3.47-1.27,7.43,1.02,10.48l1.73-3.01c-4.42.17-8.85.35-13.27.52-3.86.15-7.6.43-10.65,3.06-4.66,4.03-5.56,11.03-5.99,16.8l2-2c-5.56.02-11.12.04-16.68.05l2,2c-.1-5.47-.19-10.94-.29-16.41-.02-1.09-.9-1.98-2-2-5.4-.09-10.81-.18-16.21-.27l1.93,1.47c-1.12-4.21-1.54-8.5-1.3-12.86l-2,2c8.68-.46,17.36-.73,26.05-.82,4.39-.04,8.77-.04,13.16.01,2.15.03,4.3.06,6.45.11.99.02,1.99.05,2.98.07.6.02,2.02-.16,2.56.26.43.34.21,1.68.2,2.21-.02,1.21-.04,2.41-.06,3.62-.04,2.41-.08,4.82-.11,7.24-.04,2.57,3.96,2.58,4,0,.04-2.33.07-4.66.11-7,.03-2.12.34-4.43-.07-6.52-.91-4.71-7.06-3.82-10.6-3.9-9.52-.2-19.04-.17-28.55.08-5.38.14-10.75.36-16.12.64-1.13.06-1.94.87-2,2-.27,4.69.23,9.39,1.44,13.92.23.86,1.05,1.45,1.93,1.47,5.4.09,10.81.18,16.21.27l-2-2c.1,5.47.19,10.94.29,16.41.02,1.08.9,2,2,2,5.56-.02,11.12-.04,16.68-.05,1.14,0,1.92-.92,2-2,.34-4.65.94-10.78,4.81-13.98,2.51-2.07,5.99-1.82,9.05-1.94,4.01-.16,8.03-.32,12.04-.48,1.36-.05,2.69-1.72,1.73-3.01-1.82-2.43-.46-6.1-.47-8.88,0-1.7-.35-3.41-1.47-4.74-1.41-1.67-3.52-2.09-5.61-2.12-11.03-.15-22.08.02-33.12.04-6.28,0-12.56.01-18.83.02-2.57,0-2.58,4,0,4h0Z"/>
  </g>
  <path class="cls-1" d="M476.92,124.44c-3.89,3.26-8.85,4.91-13.08,7.65-2.1,1.36-4.02,2.97-5.49,5.01-1.78,2.48-2.51,5.43-2.7,8.44-.46,7.05.66,14.46,2.35,21.28.79,3.18,1.65,6.48,3.15,9.41s4,5,6.88,6.57c5.92,3.23,12.17,6.26,18.6,8.31,3.2,1.02,6.5,1.73,9.86,2.01,1.56.13,3.1.12,4.66.08,1.2-.03,2.63-.14,3.76.35,2.67,1.16-.57,5.04-1.49,6.4-1.61,2.38-3.25,4.74-5.07,6.97-3.81,4.7-8.18,8.47-13.88,10.64-3.26,1.24-6.32,2.59-8.39,5.54s-2.85,6.85-3.63,10.35c-1.77,7.98-2.67,16.15-2.69,24.31,0,1.38,1.28,2.17,2.53,1.93,11.78-2.29,21.15-10.46,28.68-19.37,3.95-4.68,7.61-9.63,11.11-14.65,4-5.72,7.55-11.76,9.61-18.47,1.05-3.43,1.74-6.95,2.3-10.49s1.07-6.89,1.29-10.35c.4-6.1-1.02-12.09-5.64-16.34-3.9-3.6-9.03-5.56-14.06-6.98-5.38-1.52-11.61-1.95-16.31-5.17s-6.14-8.82-7.24-13.93c-1.27-5.88-2.06-11.89-4.73-17.35-1.13-2.31-4.58-.29-3.45,2.02,4.37,8.94,2.97,20.1,8.96,28.35,3.58,4.92,8.93,6.89,14.66,8.2,4.85,1.11,9.84,2.19,14.33,4.4s8.24,5.7,9.26,10.88c.63,3.19.24,6.57-.16,9.76-.42,3.37-.91,6.74-1.59,10.07-1.36,6.67-3.83,12.74-7.43,18.51-3.26,5.23-6.96,10.24-10.77,15.09-7.72,9.82-17.13,19.51-29.88,21.99l2.53,1.93c.02-7.18.72-14.34,2.15-21.37.65-3.17,1.22-6.64,2.64-9.58,1.32-2.72,3.49-4.06,6.23-5.12s5.53-2.2,8.01-3.94,4.62-3.71,6.59-5.91,3.75-4.55,5.45-6.95,3.99-5.1,4.82-8.04-.48-5.91-3.4-7.05c-2.66-1.04-5.68-.47-8.45-.59-6.51-.3-12.79-2.63-18.65-5.34-3.07-1.42-6.15-2.91-9.12-4.53-2.73-1.49-4.73-3.28-5.94-6.2-1.33-3.22-2.16-6.73-2.88-10.14s-1.19-6.75-1.43-10.17-.64-7.58.57-11.04c.83-2.39,2.65-4.29,4.69-5.72,4.71-3.29,10.25-5.09,14.7-8.81,1.98-1.65-.87-4.47-2.83-2.83h0Z"/>
  <path class="cls-1" d="M394.26,154.94c-10.4,13.6-15.51,31.19-14.13,48.25.17,2.15.45,4.29.82,6.42s.84,4.38,2.5,5.92,3.82,2.12,5.89,2.69c2.37.66,4.77,1.12,7.21,1.43,4.39.57,9.93,1.16,13.95-1.1,3.34-1.88,5.07-5.51,6.21-9s2.54-8.23.57-11.79c-.99-1.79-2.74-2.83-4.69-3.23-1.17-.24-3.64-.09-4.35-1.22-1.36-2.18-4.82-.18-3.45,2.02.85,1.36,2.14,2.17,3.69,2.54,1.37.33,2.93.26,4.23.84,2.42,1.09,1.48,4.98.98,6.93-.76,2.93-1.65,6.28-3.87,8.46-2.76,2.72-7.65,2.09-11.16,1.78-2.17-.19-4.31-.55-6.43-1.05-1.81-.43-4.02-.81-5.59-1.88s-1.62-3.16-1.9-4.82c-.31-1.84-.52-3.7-.65-5.56-.55-7.59.21-15.23,2.22-22.58,2.28-8.35,6.15-16.17,11.41-23.05.66-.86.13-2.24-.72-2.74-1.03-.6-2.08-.14-2.74.72h0Z"/>
  <path class="cls-1" d="M444.66,173.75c3.69,8.76,6.07,18.08,6.9,27.56.41,4.67.46,9.38.16,14.06s-.81,9.14-2.41,13.41c-2.91,7.76-10.41,12.1-17.76,14.98-8.87,3.47-18.19,5.96-27.54,7.7-10.82,2.01-21.83,2.86-32.83,2.62-2.58-.06-2.57,3.94,0,4,20.33.45,40.92-2.81,60-9.9,7.75-2.88,15.77-6.91,20.11-14.29,2.5-4.26,3.46-9.15,4.03-13.99s.73-9.81.51-14.72c-.51-11.15-2.96-22.19-7.3-32.47-.42-.99-1.32-1.71-2.46-1.4-.94.26-1.82,1.46-1.4,2.46h0Z"/>
  <path class="cls-1" d="M366.82,158.34c-3.35,3.38-6.87,6.58-10.56,9.58-1.83,1.49-3.71,2.92-5.62,4.3-1.66,1.19-3.4,2.34-4.84,3.8s-2.61,3.31-2.98,5.39c-.43,2.44-.1,4.95.05,7.4.31,5.09.62,10.18.92,15.26s.42,10.12.92,15.13,5.81,4.77,9.21,2.78c8.25-4.85,7.98-15.68,9.01-23.98,1.37-11.08,3.73-22.04,6.93-32.73.74-2.47-3.12-3.53-3.86-1.06-2.59,8.65-4.62,17.46-6.03,26.38-.71,4.49-1.24,9-1.71,13.52-.4,3.91-.93,7.98-3.16,11.32-.9,1.35-2.09,2.5-3.52,3.27-.59.32-1.29.61-1.97.69s-.84.07-.92-.36c-.39-2.19-.28-4.6-.41-6.83s-.28-4.6-.42-6.89c-.28-4.68-.57-9.35-.85-14.03-.14-2.26-.33-4.53-.4-6.8-.05-1.9.22-3.6,1.49-5.07,1.34-1.55,3.08-2.67,4.73-3.86,2-1.45,3.97-2.95,5.89-4.5,3.82-3.08,7.46-6.38,10.92-9.87,1.81-1.83-1.01-4.66-2.83-2.83h0Z"/>
  <path class="cls-1" d="M456.65,309.91c-2.32-1.76-5.55-1.85-8.19-.8-2.98,1.18-5.12,3.59-6.64,6.37-1.63,2.99-2.78,6.29-3.94,9.49-1.28,3.56-2.42,7.16-3.43,10.81-.36,1.29.64,2.49,1.93,2.53,16.82.6,35.56-3,50.92,5.83,13.26,7.62,18.94,23.32,19.37,37.92.3,10.31-1.57,20.49-3.75,30.51-.23,1.07.31,2.14,1.4,2.46,4.92,1.47,9.94-1.12,12.88-5.05,3.33-4.45,4.21-10.41,4.98-15.77,1.72-12.04,1.61-24.27,1.38-36.41-.1-5.38-.42-10.91-2.13-16.06-1.54-4.62-4.2-8.74-7.78-12.04-6.9-6.37-16.07-9.64-24.89-12.37-13.24-4.09-26.54-8.01-39.82-12-2.47-.74-3.53,3.12-1.06,3.86,11.3,3.41,22.6,6.81,33.9,10.22,8.56,2.58,17.43,5,24.98,9.97,3.4,2.24,6.44,5.08,8.56,8.57,2.57,4.22,3.6,9.12,3.98,14,.43,5.38.34,10.82.35,16.22.01,5.77-.08,11.54-.52,17.29-.46,6.04-1.04,12.45-3.09,18.19-1.54,4.29-5.56,9.04-10.66,7.52l1.4,2.46c3.78-17.32,6.62-35.97-.47-52.86-2.99-7.13-7.6-13.52-13.89-18.09-6.85-4.97-15.26-7.17-23.56-8.05-10.79-1.15-21.65.06-32.47-.33l1.93,2.53c1.64-5.93,3.53-11.92,6.08-17.54.99-2.17,2.23-4.58,4.33-5.87,1.86-1.15,4.11-1.42,5.91-.05.86.65,2.24.14,2.74-.72.6-1.03.15-2.08-.72-2.74h0Z"/>
  <path class="cls-1" d="M376.66,309.64c-6.73,6.28-11.17,14.43-15.3,22.54-.93,1.82-2.16,3.86-1.7,6,.55,2.55,2.94,3.09,5.19,3.14,5.17.12,10.34.12,15.51.06,2.57-.03,2.58-4.03,0-4-4.52.06-9.05.05-13.57-.02-.96-.02-1.99-.16-2.94-.07-.13,0-.25-.02-.37-.06.11.23.13.26.08.11-.05-.25.07-.56.15-.8.52-1.73,1.65-3.4,2.48-5,3.59-6.91,7.56-13.7,13.3-19.06,1.89-1.76-.95-4.58-2.83-2.83h0Z"/>
  <path class="cls-1" d="M405.84,375.98c-1.77,6.03-8.11,8.68-13.77,9.68-7.18,1.27-14.74,1.32-22.01,1.24-1.79-.02-3.57-.07-5.36-.14-1.67-.06-3.49-.04-4.72,1.3-1.09,1.19-1.26,2.75-1.46,4.29-.25,1.96-.48,3.92-.71,5.88-.21,1.8-.4,3.6-.59,5.4-.17,1.67-.55,3.52.02,5.15,1.13,3.21,4.9,3.69,7.8,4.19,8.15,1.42,16.44,1.35,24.58-.12,2.53-.46,1.46-4.31-1.06-3.86-6.64,1.2-13.49,1.37-20.18.48-1.69-.23-3.39-.52-5.06-.9-.92-.21-2.18-.35-2.37-1.43-.25-1.39.23-3.1.37-4.49.19-1.8.39-3.6.6-5.4s.36-3.5.64-5.22c.05-.34.24-1.18.28-1.21.5-.35,1.79-.05,2.34-.03,3.41.13,6.82.16,10.23.09,6.64-.13,13.64-.24,20.11-1.86s12.27-5.49,14.17-11.97c.72-2.48-3.13-3.53-3.86-1.06h0Z"/>
  <path class="cls-1" d="M300.2,310.43c-6.87,10.4-12.44,21.6-16.65,33.34-.39,1.09.46,2.09,1.4,2.46,9.42,3.73,19.94,2.57,29.41,6.11,9.54,3.56,14.63,12.94,16.47,22.48,1.29,6.66,1.16,13.5,1.07,20.25-.03,2.57,3.97,2.58,4,0,.15-11.67.12-24.03-6.04-34.37-2.67-4.48-6.42-8.36-11.08-10.75-4.72-2.42-9.94-3.35-15.14-4.04-5.95-.79-11.99-1.31-17.62-3.53l1.4,2.46c4.09-11.41,9.56-22.27,16.24-32.38,1.42-2.15-2.04-4.16-3.45-2.02h0Z"/>
  <path class="cls-1" d="M270.04,313.42c-8.37,6.64-16.21,13.94-23.41,21.84-1.72,1.89-3.52,3.82-4.68,6.12s-1.58,4.79-1.62,7.34c-.09,5.64.47,11.34.8,16.96.18,2.97.36,5.94.56,8.9.17,2.56.99,4.71,3.8,5.15,2.47.38,5.28-.18,7.69-.72,2.57-.58,5.08-1.47,7.45-2.63s3.96-2.84,4.76-5.43c.83-2.73,1.55-5.5,2.32-8.24,1.57-5.57,3.13-11.13,4.7-16.7,1.74-6.2,3.49-12.4,5.23-18.61,1.38-4.93,2.78-10.83-.48-15.35-.63-.88-1.74-1.3-2.74-.72-.87.51-1.35,1.85-.72,2.74,2.42,3.37,1.33,7.73.31,11.42-1.37,4.98-2.8,9.95-4.2,14.93s-2.82,10.02-4.23,15.03c-.72,2.54-1.43,5.09-2.15,7.63s-1.19,5.05-2.12,7.42c-.75,1.92-3.14,2.71-4.92,3.38-2.22.84-4.54,1.45-6.9,1.75-1,.13-2.12.29-3.13.2-.15-.01-.39,0-.53-.08-.12-.07-.12-.14-.05-.03-.26-.38-.14-1.44-.17-1.87-.16-2.56-.32-5.11-.48-7.67-.32-5.22-.66-10.45-.82-15.68-.07-2.26-.05-4.62.87-6.72.87-1.97,2.35-3.6,3.78-5.18,7.32-8.09,15.32-15.56,23.87-22.35.85-.67.7-2.13,0-2.83-.84-.84-1.98-.67-2.83,0h0Z"/>
  <path class="cls-1" d="M179.36,312.55c-4.17,4.55-8.03,9.4-11.52,14.49-1.75,2.55-3.57,5.16-4.98,7.91-1.26,2.47-1.47,5.16.1,7.56,2.86,4.37,8.78,5.84,13.63,6.55,5.12.74,10.31.72,15.45,1.26,4.59.49,9.45,1.63,12.97,4.82,3.34,3.04,4.95,7.56,4.75,12.03-.23,5.17-3.2,9.14-7.21,12.18-4.67,3.54-10,6.9-15.95,7.49-3.54.35-7.11.13-10.66.27-3.1.12-7.27.23-9.72,2.41-1.22,1.08-1.78,2.62-2.17,4.16-.45,1.8-.85,3.62-1.28,5.43-.88,3.76-1.77,7.53-2.65,11.29-.59,2.5,3.27,3.57,3.86,1.06.79-3.36,1.58-6.72,2.37-10.09.34-1.44.68-2.88,1.02-4.32.3-1.28.43-3.35,1.35-4.4.77-.87,2.34-1.02,3.41-1.2,1.49-.26,3.01-.33,4.52-.38,3.24-.09,6.5.08,9.73-.22,6.13-.57,11.3-3.27,16.31-6.7,4.53-3.1,8.69-6.87,10.31-12.29,1.38-4.61.88-9.62-1.1-13.97s-5.93-7.68-10.46-9.5c-9.39-3.78-19.96-1.36-29.5-4.48-2.16-.71-5-1.86-5.93-4.14-.57-1.4.23-2.69.93-3.87.84-1.42,1.72-2.82,2.62-4.21,3.75-5.78,7.99-11.22,12.64-16.3,1.74-1.9-1.09-4.73-2.83-2.83h0Z"/>
  <path class="cls-1" d="M86.49,313.79c-4.27,9.41-9.84,18.18-16.61,25.98-.91,1.04-.7,3.03.88,3.34,7.99,1.56,15.97,3.13,23.96,4.69s15.37,2.69,22.86,4.71c5.96,1.61,13.32,4.16,16.39,9.98,1.73,3.28,1.8,7.34,2.13,10.96.36,3.93.66,7.87.89,11.81.55,9.03.77,18.08.7,27.13-.02,2.57,3.98,2.58,4,0,.07-8.31-.12-16.62-.57-24.91-.23-4.19-.53-8.37-.89-12.55-.34-3.88-.46-8-1.67-11.73-2.29-7.06-9.03-10.87-15.64-13.22-7.38-2.62-15.32-3.72-22.98-5.22-9.37-1.83-18.74-3.67-28.11-5.5l.88,3.34c7-8.06,12.83-17.07,17.24-26.79.45-.98.28-2.15-.72-2.74-.86-.5-2.29-.27-2.74.72h0Z"/>
  <path class="cls-1" d="M95.98,357.25c-.44-.08-.3-.46-.17.29.1.52.14,1.06.2,1.59.11.97.22,1.94.31,2.92.19,2.03.34,4.06.46,6.09.23,4.15.32,8.31.35,12.47s.03,7.98-.05,11.96c-.07,3.55-.35,7.16-2.29,10.24-1.38,2.18,2.08,4.19,3.45,2.02,2.23-3.54,2.73-7.73,2.83-11.83.12-4.61.09-9.24.04-13.85s-.19-9.45-.55-14.17c-.17-2.27-.39-4.54-.67-6.81-.24-1.9-.56-4.32-2.85-4.76-2.52-.49-3.59,3.37-1.06,3.86h0Z"/>
  <path class="cls-1" d="M466.91,358.71c-7.32,1.73-14.1,5.06-20.03,9.67-.85.66-.7,2.13,0,2.83.84.84,1.97.66,2.83,0,5.37-4.17,11.66-7.08,18.26-8.64,2.5-.59,1.44-4.45-1.06-3.86h0Z"/>
</svg>