<?xml version="1.0" encoding="UTF-8"?>
<svg id="Layer_1" data-name="Layer 1" xmlns="http://www.w3.org/2000/svg" viewBox="0 0 595.28 595.28">
  <defs>
    <style>
      .cls-1 {
        fill: #fff200;
      }
    </style>
  </defs>
  <path class="cls-1" d="M127.43,317.83c0-4.95-.07-8.53-.22-10.75-.14-2.88-.58-5.1-1.3-6.64-.72-1.54-1.85-2.62-3.39-3.25-1.54-.62-3.7-.94-6.49-.94h-17.53v-1.8l4.9-13.99,5.05,1.8-1.08,3.03v1.08h12.4c4.9,0,8.47,1.18,10.71,3.53,2.24,2.36,3.35,6.06,3.35,11.11,0,2.5-.13,5.93-.4,10.28-.26,4.35-.59,8.47-.97,12.37h-5.05v-5.84ZM102.11,302.47h7l.14,21.2h-8.29c.14-7.4.53-14.47,1.15-21.2Z"/>
  <path class="cls-1" d="M139.4,313.86h13.7c3.03,0,5.44-.84,7.25-2.52,1.8-1.68,2.7-3.94,2.7-6.78,0-2.55-.78-4.57-2.34-6.06-1.56-1.49-3.69-2.24-6.38-2.24h-14.42v-1.8l4.9-13.99,5.05,1.8-1.08,3.03v1.08h6.92c4.42,0,7.84,1.4,10.24,4.18,2.4,2.79,3.61,6.73,3.61,11.83l-.07,2.45c-.34,5.91-2.1,10.53-5.3,13.85-3.2,3.32-7.46,4.98-12.8,4.98h-11.97v-9.81Z"/>
  <path class="cls-1" d="M183.47,300.38c0-.77-.3-1.47-.9-2.09-.6-.62-1.58-1.25-2.92-1.88l-6.71-3.03,5.19-12.91,5.12,2.02-1.59,3.82,4.04,1.95c3.65,1.73,5.41,4.21,5.26,7.43-.05,2.36-1.03,5.02-2.96,8.01-1.92,2.98-4.57,5.94-7.93,8.87l-2.96-2.74c4.23-4.42,6.35-7.57,6.35-9.45Z"/>
  <path class="cls-1" d="M219.38,306.58c-.19-2.79-.6-4.92-1.23-6.38-.62-1.47-1.62-2.49-2.99-3.06-1.37-.58-3.33-.87-5.88-.87h-13.49v-1.8l4.9-13.99,5.05,1.8-1.08,3.03v1.08h8.08c4.66,0,8.04,1.14,10.13,3.43,2.09,2.28,3.14,5.95,3.14,11,0,2.64-.13,6.13-.4,10.46-.26,4.33-.59,8.46-.97,12.4h-4.9c-.05-9.42-.17-15.12-.36-17.09Z"/>
  <path class="cls-1" d="M231.64,313.86h13.7c3.03,0,85.88-.84,87.68-2.52,1.8-1.68,2.7-3.94,2.7-6.78,0-2.55-.78-4.57-2.34-6.06-1.56-1.49-84.13-2.24-86.82-2.24h-14.42v-1.8l4.9-13.99,5.05,1.8-1.08,3.03v1.08h6.92c4.42,0,88.27,1.4,90.68,4.18,2.4,2.79,3.61,6.73,3.61,11.83l-.07,2.45c-.34,5.91-2.1,10.53-5.3,13.85-3.2,3.32-87.9,4.98-93.24,4.98h-11.97v-9.81Z"/>
  <path class="cls-1" d="M376.48,317.83c0-4.95-.07-8.53-.22-10.75-.14-2.88-.58-5.1-1.3-6.64-.72-1.54-1.85-2.62-3.39-3.25-1.54-.62-3.7-.94-6.49-.94h-17.53v-1.8l4.9-13.99,5.05,1.8-1.08,3.03v1.08h12.4c4.9,0,8.47,1.18,10.71,3.53,2.24,2.36,3.35,6.06,3.35,11.11,0,2.5-.13,5.93-.4,10.28-.26,4.35-.59,8.47-.97,12.37h-5.05v-5.84ZM351.17,302.47h7l.14,21.2h-8.29c.14-7.4.53-14.47,1.15-21.2Z"/>
  <path class="cls-1" d="M422.2,300.38c0-.77-.3-1.47-.9-2.09-.6-.62-1.58-1.25-2.92-1.88l-6.71-3.03,5.19-12.91,5.12,2.02-1.59,3.82,4.04,1.95c3.65,1.73,5.41,4.21,5.26,7.43-.05,2.36-1.03,5.02-2.96,8.01-1.92,2.98-4.57,5.94-7.93,8.87l-2.96-2.74c4.23-4.42,6.35-7.57,6.35-9.45Z"/>
  <path class="cls-1" d="M433.09,313.86h25.96c0-1.73-.12-4.28-.36-7.64-.14-2.26-.59-4.09-1.33-5.48-.75-1.39-1.92-2.5-3.53-3.32-1.61-.82-3.86-1.49-6.74-2.02l-5.91-1.15c-.19,1.11-.29,2.14-.29,3.1,0,3.46,3.49,5.05,10.46,4.76l-1.23,5.19c-3.51,1.06-6.76,1.56-9.74,1.51-2.07-.62-3.52-1.48-4.36-2.56-.84-1.08-1.26-2.61-1.26-4.58s.56-4.81,1.7-8.22c1.13-3.41,2.94-7.79,5.44-13.13l4.98,2.09-1.37,3.1,1.3.22c5,.86,8.69,1.91,11.07,3.14,2.38,1.23,4.01,2.97,4.9,5.23.89,2.26,1.33,5.63,1.33,10.1,0,2.5-.1,5-.29,7.5-.19,2.5-.41,4.23-.65,5.19l-1.87,6.78h-28.2v-9.81Z"/>
  <path class="cls-1" d="M484.8,307.16c3.94-3.61,5.91-6.37,5.91-8.29,0-.82-.29-1.45-.87-1.91-.58-.46-1.35-.69-2.31-.69h-17.24c-.91-3.89-1.58-7.38-1.98-10.46-.41-3.08-.61-6.08-.61-9.01,0-2.36.1-4.52.29-6.49l5.7-.94h3.03l-2.74,15.07v1.95h13.56c2.93,0,5.2.89,6.82,2.67,1.61,1.78,2.42,4.28,2.42,7.5,0,4.52-1.85,9.24-5.55,14.17-3.7,4.93-9.23,9.99-16.59,15.18l-5.12-7.64c6.25-3.8,11.35-7.5,15.29-11.11Z"/>
</svg>