<?xml version="1.0" encoding="UTF-8"?>
<svg id="Layer_1" data-name="Layer 1" xmlns="http://www.w3.org/2000/svg" viewBox="0 0 595.28 841.89">
  <path d="M312.81,736.26c-6.71-.04-9.75-1.28-15.12-5.01l-10.68,1.16c-7.25.15-14.27-.48-21.42-1.41-4.63-.6-8.75-2.06-12.86-4.17l-7.15-3.65c-1.49-.76-3.29-1.94-4.01-3.49-.36-6.11,4.08-10.88,9.87-12.06s11.75-1.93,17.84-2.08c3.76-.1,9.03-2.33,11.23-5.09,2.74-3.44,5.87-6.13,9.91-7.98-3.12-2.46-3.6-5.65-2.81-9.07.96-4.15,2.87-7.79,6.37-10.34l-6.95-21.39c-2.46-7.56-3.83-15.05-4.41-22.98l-.48-6.41-.06-27.12-3.07-9.29-1.42-7.17-7.58-29.29-7.4-33.07c-1.65-7.39-2.73-14.53-3.54-22.01l-1.56-8.19-2.86-1.72-11.17-4.57c-2.19-.9-4.35-2.66-5.14-4.91-.82-2.31-.54-4.75-.78-7.17-.47-4.66-3.83-8.58-1.19-14.04l-5.02-3.84c-2.58-1.98-3.72-4.77-2.8-7.95l2.34-8.12c3.31-11.46,6.93-22.57,12.04-33.36,2.02-4.27,3.5-8.33,4.86-12.85,3.83-12.72,5.9-25.53,6.61-38.83l1.39-17.53c.79-9.96,2.63-19.37,4.71-29.13,2.58-12.12,3.2-24.27,4.12-36.58.81-10.94,2.35-33.88,11.37-39.2,6.61-3.9,12.9-7.91,18.02-13.69,2.1-2.37,4.11-4.78,5.47-7.67l-.03-2.95c-.06-5.44-1.52-10.47-3.47-15.51l-.52-.34c-3.48,1.19-6.8,1.72-10.34,1.39-7.29-.7-5.91-9.69-5.92-16.25v-5.75s-4.7-2.39-4.7-2.39c-.54-.28-.2-1.78.13-2.25l5.4-7.7,3.64-5.41-2.59-5.56-.51-2.99c-.66-3.85.78-7.29,1.64-10.95.66-2.8,1.22-5.58,3.6-7.65l.09-.71c-3.42-.55-7.55-2.81-6.9-4.57.16-.44,1.03-.98,1.57-1.14,3.24-.97,6.14-2.15,9.18-3.59.17-.15.65-.59.3-.27-1.58-1.22-2.61-2.13-3.76-3.46-.42-.49-.48-2.32.13-2.47,3-.75,5.91,2.69,12.22-.26,2.85-1.33,6.08-1.63,9.14-2.38,3.32-.81,6.48-1.28,9.98-1.09,10.92.62,20.73,5.67,27.9,13.85,3.6,2.91,6.63,6.22,8.45,10.5l1.26,3.3c1.19,3.12,1.52,6.25,1.57,9.58.1,7.12-1.08,13.86-3.72,20.45-1.32,3.29-2.63,6.49-4.81,9.19-1.44,1.78-3.02,2.52-5.51,2.02-.47,1.31-.61,2.54-.61,3.97.01,3.59-.46,7.49-2.83,10.27-.82.96-1.57,1.68-1.91,2.99l-.26.99c-.22.85,2.62.29,3.21,2.11l.95,2.94c2.41-.02,4.74.22,6.56,1.41.25,4.6,3.92,10.07,6.98,13.95,4.82,6.1,10.01,11.62,15.42,17.21l5.88,6.58c3.82,5.26,7.07,10.67,9.88,16.56,4.57,9.58,5.53,18.78,1.22,28.6l-4.4,10.02c-.32.72-.39,2.44-.34,3.31l.48,7.91,1.03,17.59c.18,2.98-.4,5.06-1.63,7.66-1.57,3.32,1.85,12.2-1.07,17.56l-1.96,3.61.58,4.56c-.01,3.11-.38,6.25-1.16,9.24l-4.31,16.54c-.89,3.43-1.74,6.68-3.2,9.88l-3.27,7.16,1.58,26.12c.5,8.23.68,16.05,2.1,24.19.14.79-.43,2.32-.82,2.9-.12.18-.85.11-1.11.11l-8.32-.06-.65.23c-.14.05-.03.51.03.65l2.74,6.45c.95,2.24.85,4.77.26,7.15-1.26,5.01-2.84,9.76-4.79,14.53-.7,1.71-.5,3.03-.12,4.84s-.43,3.89-.66,5.77c-.32,2.59-.05,5.15.17,7.76l.33,3.94-.15,11.96c.29,7.64.77,15.01,2.33,22.47,1.38,6.64,4.11,12.42,7.85,17.99l4.08,6.07c4.91,7.3,2.07,15.14-.25,22.99-.71,2.41-1.03,5.06.51,7.14,1.1,1.49,1.5,2.93,1.36,4.86l-.38,5.25-.63,1.58,1.7,14.39c.44,3.69.17,7.11-.42,10.81-.25,1.58,2.38,2.73,1.39,4.85l-1.69,3.61c-2.11,4.49-6.28,9.27-2.85,14.32,1.88,2.77,2.6,5.83,2.3,9.27-.42,5.59-2.72,10.77-5.89,15.36l-.72.54c-.14.11.36.27.61.31l3.71,1.33c1.37.49,2.38,1.88,2.65,3.09.34,1.48-.05,3.06-1.15,4.11l-2.36,2.26c-.89.85-1.45,2.02-1.19,3.34l1.45,7.34,2.27,16.78c.48,3.57-.76,7.01-4.3,8.37-7.32,2.81-13.93,1.15-21.34-1.39-4.84-1.66-6.71-5.47-8.31-6.05l-5.51-1.98-.69-.15c-.12-.03-.13.42-.11.62l1.21,18.32-.33,4.77c-.01.21-.3.88-.37.99-3.26,2.46-6.95,3.64-11.03,3.97l-9.8-.06ZM340.65,666.94c-2.54-2.17-5.25-4.28-7.2-7.07-2.62-3.77-.78-12.38.37-13.62l2.81-3.03c1.04-1.86.71-4.14.33-6.14l-1.92-10.2c-.54-6.6-.86-12.99-.55-19.59l.96-7.47c.36-2.83.14-5.26-1.25-7.74l-2.48-4.41c-3.19-5.69-5.49-11.52-7.36-17.75-.08,2.44.53,4.64,1.26,6.9l3.43,10.58c1.39,4.3.85,8.76.94,13.26l.56,30.11c.04,2.07-.45,4.39.2,6.26.89,2.56,1.47,4.75,1.36,7.5l-.44,11.1.02,12.72.32,5.45,2.73-3.22c1.04-1.23,4.14-3.55,5.92-3.66Z"/>
</svg>