<?xml version="1.0" encoding="UTF-8"?>
<svg id="Layer_1" data-name="Layer 1" xmlns="http://www.w3.org/2000/svg" viewBox="0 0 595.28 841.89">
  <path d="M440.98,221.98c.2-.04.99-.49.88-.59s-.44-.46-.39-.45c.06,0-.4.09-.68.13l-6.09.78c-4.4-5.01-8.99-8.89-14.09-13.02-7.75-6.28-14.82-13.07-21.18-20.97,1.08-.61,1.74-1.04,3.01-2.15-.8-.09-1.28.04-1.76.29l-1.46.76c-.37.19-8-6.33-10.95-10.54-5.1-7.29-8.76-15.4-10.83-24.03-.94-3.95-.79-7.78.98-11.45,5.59,10.38,15.46,18.16,27.1,20.87,2.49.58,4.99.04,6.55-1.95l7.2,6.8c4.61,4.14,9.49,7.57,14.79,10.8,3.45,4.21,7.12,7.78,11.24,11.36l12.72,10.23,7.43,7.16c1.82,1.76,4.2,3.27,5.57,5.45,3.37,5.35,5.72,10.97,7.82,16.94,2.9,8.25,6.25,16.02,10.16,23.8,1.92,2.85,2.76,6.17,5.96,8.38-5.74-10.54-10.64-21.28-14.61-32.78-2.11-6.13-4.59-11.76-8.04-17.2-1.38-2.19-3.7-3.72-5.53-5.49l-6.52-6.31-8.01-6.59c-4.95-4.08-10.04-7.83-14.41-12.45l-1.39-3.99c-1.72-4.93-3.72-9.53-6.18-14.09,2.37-.29,4.65-.55,6.13-2.34l-6.56,1.48c-7.23-4.63-14.03-9.31-19.88-15.59-5.37-5.77-9.76-11.98-14.35-18.35l-2.86-3.37,5.12-1.59c1.48-.46,2.96-1.48,3.56-2.9-3.52,1.85-6.6,2.98-10.12,3.55-7.17-6.58-13.57-13.06-19.31-20.69-6.49-8.64-10.83-21.91-3.86-31.17l7.32,8.7c4.39,5.22,13.96,11.41,18.02,4.65l8.35,6.56,12.69,12.5,24.53,20.52,24.79,19.87c7.33,5.88,13.74,12.82,17.89,21.36l8.55,19.78,8.88,24.73,2.2,4.89c-.02-1.43-.4-2.35-.82-3.59l-9.63-27.94-7.8-18.29-2.07-3.77c2.78-8.58,1.64-15.96,4.07-24.79l.61-3.57c3.33,1.14,6.71,2.82,10.15,2.06l-10.11-3.32-1.31-4.64-4.68-16.52-4.45-17.15c-1.37-5.3-1.47-10.52-1.77-16.14l6.76.56c2.62.22,5.16.98,7.89-.17l-15.54-1.8c-1.42-4.42-3.39-8.87-4.08-13.76-1.55-11.02-.89-22.32,1.82-32.99,1.05-4.13,3.36-7.51,6.74-9.68,1.93,11.24,6.14,24.47,15.02,31.39,2.18,1.7,5.08,2.03,7.09.01l6.69,19.87,13.19,39.34,5.77,16.35,3.13,11.44c1.18,4.31.76,8.82.81,13.33.12,10.21-.45,19.88-1.65,30.06-1.77,14.98-2.08,29.56-1.83,44.59l-.19,19.05c-.87,17.15-2.8,33.83-6.1,50.67-2.83,14.41-4.75,25.5-2.51,40.33,1.12,7.42,2.11,14.59,1.67,22.14-.52,8.92-1.82,17.3-3.51,26.07-2.66,13.74-4.6,27.08-5.28,41.09-.53,10.99.29,21.35,1.25,32.27l1.76,19.91c.34,12.89-2.12,25.44-8.17,36.82-5.83,10.98-14.12,20.3-24.19,27.43-1.2.85-1.83,1.2-2.72,2.24-2.94,3.43-5.58,6.69-7.92,10.67l-21.28,36.16c-12.09,18.98-23.42,38.24-33.39,58.5-15.21,30.91-28.23,62.64-39.63,95.12l-12.71,41.27-10.21,39.61H67.73s-1.26,0-1.26,0c-.24,0,0-.48.24-.89,6.4-10.21,13.26-19.69,20.79-29.19,14.89-18.77,30.38-36.82,47.4-53.74l41.87-41.62,24.76-24.38,49.69-48.81c17.84-17.52,36.2-34.19,55.31-50.28l38.87-32.74,28.58-25.78c8.05-7.26,14.64-15.36,20.98-24.15l6.38-17.91c4.65-17.79,1.28-35.85-6.08-52.51l-19.31-43.78-5.53-16.23c-4.13-16.02-5.65-32.32-5.03-48.92l-4.34-27.39c-1.86-8.95-4.14-17.43-7.16-26.02l-.43-1.21c-.11-.32.7-.69,1.14-.86,6.59-2.54,12.99-5.11,20.09-5.93l3.32-.18c.08-.52.14-.75,0-.75h-1.09s-5.43.32-5.43.32c-6.11,1.07-11.76,3.11-17.44,5.54l-.85.36c-.23.1-.46-.43-.63-.85l-12.75-31.39c-2.62-6.45-4.64-12.93-5.2-19.99,1.24-6.45,7.91-10.77,13.98-13.68,5.14,1.74,9.51,4.07,14.23,6.63,10.56,5.74,19.15,13.79,25.27,24.22,3.83,6.53,7.11,13.09,9.14,20.45l9.45,34.3,4.14,14.85c.07.25-.12,1.04-.37,1.09l-.92.17-9.27,2.95-4.5,1.77-4.11,2.55c.05.29.12.68.12.66l5.79-2.87,14.2-4.28c4.27,1.24,8.33.22,12.27-1.39,10.85-5.39,19.45-17.34,24.98-28.25l-2.96-9.82-5.31-20.75c-1-3.92-2.91-7.5-4.98-10.75l5.23-1.1ZM470.91,498.63c7.13-4.81,12.85-12.59,13.56-21.17-3.31,6.93-5.45,13.44-11.18,18.27-.64,1.09-3.22,1.14-2.37,2.9Z"/>
  <path d="M476.22,134.67c6.03,8.55,7.25,14.69,4.19,24.92-4.33-6.09-8.55-11.37-14.13-15.89l-25.37-20.58c-10.1-8.19-19.97-16.01-29.51-24.82-2.32-2.14-5.1-4.27-6.8-6.89-3.38-5.23-5.62-11.02-7.9-16.82s-3.39-11.61-3.17-17.6c.16-4.47,2.69-8.42,6.6-9.88,1.64,5.21,4.62,9.54,8.16,13.62,4.24,4.88,10.26,10.8,15.84,7.99l16.88,22.49c7.15,9.53,13.85,18.8,22.01,27.47,4.83,5.13,9.15,10.25,13.2,15.99Z"/>
  <path d="M498.91,48.84c-1.02,1.93-3.79,1.91-5.56.59-8.64-6.52-13.08-20.15-14.89-31.21,1.78-.85,3.95-1.12,5.76-.29,2.67,1.22,4.08,3.66,5.23,6.27l3.65,8.29,5.8,16.36Z"/>
  <path d="M411.03,158.63c-1.02,1.67-3.09,2.11-5.1,1.63-11.29-2.71-21.01-10.49-26.54-20.87,1.1-2.31,4.02-2.69,6.26-1.61,3.74,1.81,7.18,4.07,10.29,6.94l15.1,13.91Z"/>
  <path d="M392.98,83.65c-6.79,7.31-18.23-6.69-23.73-13.96,4.51-2.37,10.13.57,13.66,4.06l10.06,9.91Z"/>
  <path d="M420.58,64.59l2.42,3.08c-2.31.53-4.75-.07-6.77-1.66-6.27-4.93-11.33-11.04-14.76-18.7,2.5-.76,7.94,1.8,9.58,4.07l9.53,13.2Z"/>
  <path d="M333.84,202.39c-.87-3.85-1.62-10.73,1.32-13.24,1.39-1.18,4.1-1.16,5.68-.48l5.3,2.29c-5.15,2.86-9.45,5.63-12.31,11.42Z"/>
</svg>