<?xml version="1.0" encoding="UTF-8"?>
<svg id="Layer_1" data-name="Layer 1" xmlns="http://www.w3.org/2000/svg" viewBox="0 0 595.28 841.89">
  <defs>
    <style>
      .cls-1 {
        fill: #010101;
      }
    </style>
  </defs>
  <path class="cls-1" d="M305.14,589.54l-.44-6.96-.44-5.22-.54-5.14c-1.49-20.54-6.25-40.31-14.4-59.32-11.25-26.23-26.73-53.36-46.11-74.17l-7.97-8.09-7.75-7.46-3.94-3.52-8.44-8.43c-3.94-3.94-6.78-8.63-9.65-13.36-1.2-1.97-2.88-3.14-4.53-4.62l-4.59-4.14-19.14-15.54-4.64-4.03-4.58-4.16-5.64-5.24c-3.87-3.59-7.25-7.42-10.51-11.64l-14.78-19.08-16.14-18.6-4.64-4.97-9.12-9.49-8.74-12.14-3.19-4.21c-4.78-5.01-8.14-10.68-10.75-17.07-1.83-4.47-3.32-8.67-4.46-13.39-1.81-7.5-3.49-14.8-4.29-22.5l-1.28-6.17-5.2-23.92-9.05-36.06c6.06-3.63,4.18-15.01,2.12-22.14l-4.09-14.2c2.55-5.47,10.32-7.01,15.35-3.11,4.4,3.42,9.15,6.22,12.99,10.39,12.01,13.02,21.31,28.26,23.52,46.01.25,1.99.04,3.01-1.62,4.23-2.81,2.07-5.85,3.01-9.84,2.2,3.06,2.74,8.66.88,11.83-2.24,2.34,2.93,4.07,5.8,5.52,9.07,2.66,6,4.82,11.89,6.49,18.25l2.71,10.32,2.57,9.78-2.47,1.99-5.94,3.66c-.4-.05-.45.23-.26.44.33.35.41.39.86.13,2.44-1.41,5.09-2.2,7.12-4.2.3-.29.53-.61.81-.73.56-.24.82.56,1.12.74,4.24,2.46,7.67,5.52,11.41,8.59l10.06,8.24,3.9,3.4,10.96,14.27c3.43,4.47,6.04,9.08,8.55,14.08l3.79,7.54,5.35,10.68c1.93,3.85,4.27,7.47,7.31,10.48l7.64,7.56,13.76,11.48,3.5,3,15.78,15.89c12.66,12.75,24.24,35.16,36.32,49.77l-15.22-23.93c-6.21-9.76-12.72-18.76-20.46-27.35l-15.32-15.47-2.63-2.19-15.3-12.93-7.17-7.15c-4.17-4.88-7.05-10.36-10.01-16.07l-10.11-19.45-10-13.85-5.34-8.99c4.91,1.88,9.99.33,13.49-3.7,2.85-3.29,4.07-7.41,4.68-11.82.98-8.95-1.29-17.57-5.29-25.6-2.92-5.86-6.05-11.21-10.42-16.25,8.7.16,15.5,4.06,21.95,9.06,8.8,6.82,17.55,13.15,25.43,21.01l8.73,8.71c8.01,8.71,14.98,17.83,22.26,27.21l13.86,17.86,2.7,2.98c4.12,4.55,9.57,7.24,14.83,10.34,5.8,3.42,11.88,5.3,18.23,7.48l9.35,3.21,22.43,9.73,15.01,7.52c3.83,1.92,7.3,4.08,10.62,6.76l11.35,9.15c13.93,11.23,27.65,22.43,39.75,35.65l4.23,4.63c12.04,14.02,22.46,29.18,30.34,46.02,8.49,18.13,13.04,37.46,14.83,57.29l.37,8.77.11,13.28-.42,8.25-.41,4.77-1.91,18.78c-.23,2.28-.52,4.93-.12,7.28,1.32,7.69,3.1,14.97,5.91,22.36,8.88,23.34,18.71,46.1,29.3,68.79,11.92,25.53,23.31,51.05,33.73,76.98.82,1.45,1.63,2.9,2.38,4.39s1.48,2.97,2.09,4.5c12.18,30.65,23.35,62.03,33.35,93.46.5,1.57.87,3.19,1.24,4.81.37,1.62.67,3.26.95,4.9h-231.53s-.93-.41-.93-.41c-9.96-73.05-12.27-146.67-13.67-220.05l.61-1.51v-6.11ZM188.27,298.01c1.11-8.67,5.86-15.24,11.96-21.29-2.79,1-4.4,3.18-6.12,5.31-3.55,4.39-6.35,9.29-6.67,15.3-.34.98.44,1.31.83.68ZM193.91,304.85c3.79-6.59,8.73-12.15,14.04-17.62.8-.83,1.6-1.72,2.1-3.05l-6.06,6.02c-2.85,2.83-10.33,11.35-10.09,14.65ZM323.9,547.85c-1.81-3.37-2.82-7-2.6-10.83.04-.65-.99-1.13-1.22-.82-.44,3.54.57,7.14,1.91,10.48,1.12,2.01,2.54,4.32,5.31,4.67l-3.41-3.49Z"/>
  <path class="cls-1" d="M278.36,243.94c-2.77,1.47-4.44,3.1-5.14,6.06l-4.37,18.62-3.76,11.59-4.26-3.47.93-3.51-.2-12.8-.37-9.55c-.1-2.7-.84-5.06-2.31-7.16-.15.63-.18.99-.39,1.37l-11.76-9.42c4.08,1.44,7.21,4.28,10.48,6.59,1.51-1.39,3.35-2.23,5.08-3.21,4.21-2.38,7.58-5.29,10.95-8.63,3.66-3.62,6.58-7.44,8.72-12.18.73-1.62,1.64-3.19,2.79-4.79-1.35-4.93-4.59-8.84-8.76-12.42,5.2,1.8,7.94,6.89,9.89,11.97,13.35-3.16,25.68-9.51,36.41-18.22,6.27-5.08,11.42-11.57,13.67-19.26.28-2.42-2.13-4.36-3.42-6.37-8.53.91-16.52,7.16-23.87,1.59l-12.45,4.8-12.48,2.35c-6.53,1.23-12.67,2.66-18.88,5.09-8.1,3.17-14.05,9.12-19.07,15.98-2.7,3.69-6.43,5.93-10.08,8.23-2.15,1.35-3.24,3.8-4.76,5.67l-5.73,7.06,3.81-9.38c.8-3.37,2.57-6.11,4.91-8.55l7.05-7.38c5.12-5.36,9.82-11.65,11.56-19.12.31-3.89-2.85-7.42-4.5-10.43,2.86,1.53,4.21,4.47,5.16,7.46.49-.5,1.04-.89,1.78-1.18l9.96-3.9c5.29-2.07,9.16-5.67,13.35-9.21l6.04-6.18c8.05-6.65,12.99-16.42,10.96-27.02-.3-1.58-2.07-4.13-3.82-3.59-4,2.37-7.51,5.44-11.92,7.14-4.16,1.6-8.63,1.71-10.83-1.83l-13.69,5.12-9.6,3.91c-4.46,1.82-8.23,4.62-12.18,7.28l-6.2,5.12c-2.41,1.99-4.55,4.05-6.46,6.59l-7.84,10.42-14.88,19.38c-1.24.74-1.74,2.04-2.69,2.99l-13.15,13.21c8.51,5.81,16.06,12.02,23.5,18.85l12.17,12.16c7.66,8.37,14.26,17.15,21.18,26.15l11.9,15.48c4.64,6.04,14.49,13.13,21.45,15.08l10.87,3.03,24.9,5.89c2.01-6.98,3.36-13.85,3.82-21.13.19-3.06.88-6.12-.06-9.01-2.44-3.66-5.89-5.41-9.98-7.61,3.73-.28,6.41,2.38,9.13,4.63,6.29-4.28,12.1-9.03,17.14-14.63,2.45-2.72,2.27-5.35,4.45-5.52-1.73-4.67-4.79-8.12-7.79-12.32,4.53,2.91,7.04,7.54,9.41,12.38l8.21-1.13c7.35-1.01,13.53-4.44,19.16-9.08,2.83-2.33,5.09-5.12,4.71-9.06-.11-1.14-.99-2.34-2.29-2.04-1.43.33-2.67-.32-3.97-.34-3.83-.06-7.52-.3-11.11-1.53-1.78-.61-2.81-1.77-3.78-3.27-.71-1.1-2.43-.2-3.41-.18l-13.56.36-9.7.25c-1.68.04-2.73.96-4.05,1.63-6.2,3.14-11.5,6.96-16.72,11.52-5.84,5.09-12.31,8.93-19.26,12.62Z"/>
  <path class="cls-1" d="M154.44,247.07c7.47,2.74,12.39.48,15.72-6.39,1.98-4.09,2.34-8.45,2.15-13.07-.5-12.82-7.94-25.7-15.96-35.93-9.94.48-14.55,8.06-15.89,17.7-1.15,8.28,2.83,18.29,7.05,25.65l6.92,12.05Z"/>
  <path class="cls-1" d="M59.86,159.44c2.91-2.13,3.57-9.22,2.55-13.06l-5.46-20.53c-5.15,8.21-2.89,12.71-.67,20.98l3.58,12.6Z"/>
  <path class="cls-1" d="M269.99,126.21c.75,2.66,6.19,2.56,9.61,1.04,3.98-1.76,7.61-4.25,10.8-6.91-7.48.85-13.59,3.6-20.41,5.87Z"/>
  <path class="cls-1" d="M309.83,170.14c3.15,1.9,6.79,1.83,10.08.94l10.51-2.85c-6.49-3.01-14.23-.64-20.59,1.91Z"/>
  <path class="cls-1" d="M356.93,221.25c2.41.27,4.74.69,6.93.2-3.74-2.9-8.09-3.58-12.64-3.81-1.66-.08-3.28-.85-4.98-.16,1.56,2.37,3.89,3.01,6.33,3.28l4.35.48Z"/>
</svg>