<?xml version="1.0" encoding="UTF-8"?>
<svg id="Layer_1" data-name="Layer 1" xmlns="http://www.w3.org/2000/svg" viewBox="0 0 595.28 841.89">
  <path d="M398.26,148.39l10.57,11.79c3.72,6.98,4.85,14.31,6.16,22.05l6.53,38.67c1.16,6.84-.8,13.67-4.17,19.46l-14.51,21.5c-5.19,7.69-13.99,18.94-15.73,27.1l-3.04,14.26-5.35,35.64-9.87,66.48c-3.23,21.77-7.69,42.76-14.14,63.74l-4.6,17.19c-1.61,6.02-3.17,12.43-2.78,18.75l3.18,15.43,11.44,52.07c5.14,23.38,11.54,45.94,19.17,68.61l14.55,43.25,21.17,67.51,9.55,40.15h-220.13s-1.88-45.43-1.88-45.43c-1.01-51.29,1.04-102.11,5.08-153.25l4.45-56.25,1.45-29.55c.22-4.54-1.63-8.82-3.22-12.98-7.87-20.47-20.8-31.52-28.8-46.64-5.05-9.55-7.64-19.75-8.97-30.52-1.63-13.26-2.43-26.23-2.31-39.61l.21-21.69.08-16.23-3.25-22.26c-.55-7.96,0-15.36,2.17-23.02,4.87-17.2,7.2-39.41,6.91-57.38-.09-5.88,1.15-11.35,3.33-16.72l6.82-13.42,8.8-19.88c3.43-1.8,6.92-4.08,9.43-7.24l6.99-8.84c4.06-5.13,7.78-15.95,7.16-16.3l1.24.7c4.05,3.17,7.75,7.71,9.79,12.65,1.47,4.05,2.49,8.04,3.03,12.31l-3.57,20.72-2.99,16.67-2.61,24.16c-.91,8.44-12.97,27.13-16.59,55.3-.3,2.35-.98,4.68.26,6.87,2.29-17.91,7.15-34.58,14.5-50.77,2.62-5.77,3.7-11.35,4.34-17.54l1.85-17.81,3.1-17.54,4.41-23.75,1.8-4.59-1.42-17.35c-.58-7.02.4-13.75,1.2-20.76l1.34-11.73-10.32-25.89c-3.67-9.21-6.58-26.93-1.06-36.19,4.71,7.95,13.85,20.78,23.61,22.49,3.63.64,7.06-1.68,8.87-4.71.16-.27.54-1.19.74-1.02.26.23.71.78.85,1.16,3.71,9.58,8.91,17.76,15.2,25.71,4.69,5.93,7.74,12.59,8.46,20.12l1.62,17.07c.62,6.56,1.91,12.79,3.68,19.11,1.07,3.83.96,7.51.43,11.46l-1.52,11.32-1.44,19.22c-.21,6.17-.3,12.1.46,18.06l.77.67c.13.11.78-.01.69-.16l-.51-.87v-14.73s1.34-17.37,1.34-17.37l1.71-15.17c.53-4.73.66-9.16-.61-13.73-1.94-7-2.9-13.94-3.54-21.17l-1.12-12.58c-.74-8.32-3.76-15.69-8.86-22.28-5.13-6.64-9.57-13.06-13.42-20.77l.89-.91,17.17,10.15,8.76,10.04c8.82,8.02,17.24,16.19,26.74,23.42,6.52,4.97,10.62,11.29,10.73,19.88.1,7.81-1.04,15.62-2.22,23.48-1.28,8.54-.34,16.41.72,24.84l2.03,16.16.29,11.25c.15,5.92,4.02,9.06,3.35,7.33l-.41-1.05c-1.27-3.28-1.47-7.01-1.55-10.64l-.2-8.69-3.04-23.44c-1.67-12.89,3.99-27.39,2.54-42.59-.76-7.97-5.51-13.41-11.31-18.38l-16.98-14.53-15.4-14.39c20.88,1.71,36.43,11.22,48.75,27.89l7.76,10.51,7.72,8.97c4.25,4.06,8.05,7.89,10.5,13.26,2.28,4.99,4.02,9.9,4.01,15.55-.01,7.32-.34,14.43-1.88,21.68-2.87,13.47-4.59,26.62-5.17,40.44l1.05-1.47c1.05,6.61,2.56,13.32,4.89,19.79l.85.67c.13.1.36.15.32,0l-.3-1-4.73-20.94c2.57-3.5,5.55-6.01,8.66-8.82l6.77-6.09c1.19-1.07,2.96-2.24,4.26-2.78l5.07,3.8.52-1.07c-1.89-1.15-3.51-2.45-4.61-4l-2.13-19.55-.08-8.97c-.03-2.9,3.14-5.7,5.49-7.13.34-.35.59-.7.86-1.16-2.9.26-4.81,2.25-5.97,4.23-6.87-9.39-11.72-19.85-13.6-31.37-.97-5.94-.34-11.55,1.38-17.25.33-1.1,1.46-2.34,2.49-3.11,4.4,6.82,9.03,12.9,14.93,18.22,3.28,2.95,7.18,4.51,11.98,4.08ZM326.13,271.93c.85-1.41,1.02-2.41,1.33-3.72l.02-17.53c-.3-.27-.89-.65-1.01-.43l-.52.99.19,20.69ZM285.99,262.16l-.6-10.62-.04-1.11c0-.24-1.12.35-1.26.56-.16,5.3.04,12.58,2.06,17.94.67-2.08-.02-4.4-.15-6.77ZM356.38,275.18l.94.04,2.61-15.94c-1.4.47-2.01,1.48-2.12,2.5l-1.44,13.4ZM237.35,569.49l.12-7.88c.05-3.4,1.32-6.35,2.33-9.93-2.66,2.37-2.82,5.75-3.27,8.99-.42,3-.82,5.93.82,8.82Z"/>
  <path d="M261.44,74.53c-1.16,2.64-2.88,5.25-5.69,6.14-8.58,2.7-21.27-13.71-25.67-22.39,2.91-5.54,9.68-10.81,12.92-7.33l7.13,7.66,11.32,15.92Z"/>
  <path d="M214.66,166.41c-3.78,6.35-10.54,15.41-17.03,19.07l4.62-18.22c1.54-6.09,4.54-11.75,9.59-15.55,2.56-.73,5.46.68,7.49,2.05-.89,4.62-2.31,8.68-4.67,12.65Z"/>
  <path d="M391.8,139.06l5.37,7.87c-3.93.39-7.14-1.18-9.9-3.63-5.72-5.07-10.25-11-14.46-17.47,2.08-.34,3.91.15,5.66,1.16,5.33,3.04,9.77,6.86,13.33,12.08Z"/>
</svg>