<?xml version="1.0" encoding="UTF-8"?>
<svg id="Layer_1" data-name="Layer 1" xmlns="http://www.w3.org/2000/svg" viewBox="0 0 595.28 841.89">
  <defs>
    <style>
      .cls-1 {
        fill: #010101;
      }
    </style>
  </defs>
  <path class="cls-1" d="M480.11,571.32l7.65-7.67c3.82-3.83,17.82-14.02,20.5-11.39.61.6.26,1.56-.25,2.58-4.41,8.79-7.57,17.65-11.31,26.79l-17.58,42.93-9.48,19.03c-3.15,6.33-6.99,11.53-12.32,16.26-7.66,6.8-15.79,12.53-24.53,17.93-7,4.32-12.51,9.86-16.51,17.05-1.29,2.32-3.7,4.5-4.26,7.27l-10.85,54.1c-1,4.99-1.23,9.54-.99,14.68-.83,1.38-1.62-.83-1.56-4.12l.19-10.41,4.31-28.62,3.05-16.48c-.48-1.57-2.62-2.39-4.05-3.08-2.63-1.27-5.25-4.59-8.45-4.36-9.06.67-23.49,11.27-47.69,13.69h-11.25c-8.19-.7-15.76-2.74-23.47-5.5-7.8-2.79-14.65-6.75-22.04-10.49l-24.23-12.28c-.82-.42-1.49-.59-1.76-1.56-.17-.64.79-1.5,1.8-1.52l8.42-.13c10.69-1.09,20.81-3.9,30.9-7.56l12.15-4.4c7.6-2.76,15.34-3.92,23.4-3.25,10.71.89,20.84,3.62,30.23,8.8l9.37,5.17c7.12,3.93,13.13,8.94,18.84,14.7,2.94,2.97,6.36,5.25,8.59,8.8l2.85-14,3.66-22.27v-12.72c-.64-6.62-2.56-12.6-5.38-18.65-6.91-14.79-16.08-27.92-26.42-40.53l-14.61-18.92c-1.35-1.75-3.94-.16-5.23.51-6.03,3.14-12.49,4.8-19.39,5.14-8.35.42-16.33-2.51-23.84-6.25-9.08-4.52-17.71-9.53-25.09-16.38l-4.17-3.87c-3.78-4.38-7.6-8.47-10.54-13.37-.29-.48.46-1.51.83-1.75,1.32-.83,10.36,8.55,19.95,10.31l34.6,6.38,6.39.53c6.95-.1,13.29.44,19.64,3.72-6.8-8.99-14.59-16.34-23.91-22.26l-5.73-2.76-12.62-4.97c-10.09-3.97-18.83-9.88-26.61-17.37l-6.61-6.36c-21.56,11.19-46.45,6.32-65.06-8.03l-14.15-10.91-.96-.82c-.34-.29.14-1.68.65-1.6l16.41,2.75,6.42.52,7,.5,14.29.36,10.02.42c5.7.24,10.57,2.18,15.85,5.16l-4.16-7.82-4.7-9.86c-4.73-7.51-9.7-14.69-15.46-21.46-4.56-5.36-10.46-8.98-16.85-11.68-5.76-2.42-11.76-2.77-18.04-2.52l-15.53,2.42-13.49,1.71c-.5-.61-1.2.08-.66.48l1.2,9.44c.76,5.98.93,17.12-1.93,17.92-.73.21-2,.17-2.64-.43l-4.45-4.1c-.54-.5-1.74-.23-2.12.49-1.73,3.22-4.42,5.99-6.37,4.86-.93-.54-1.55-2.83-2.91-3.2-1.72-.48-5.7,2.95-7.39.81l-3.1-3.92c-1.8-2.27-.34-6.03.28-8.49.12-.61-.48-1.08-.75-1.38l1.34-3.58c2.84-3.95,6.9-6.28,11.18-8.35l2.18-1.06c1.02-.38.18-1.05-.65-.89l-18.11-3.59c-5.49,3.99-15.55,10.43-18.95,5.86-2.12-2.86.9-5.9-.01-6.65-3.7-3.02-.81-9.46,4.13-13.2,1.89-1.43-5.95-8.19-1.42-16.3.68-1.21,2.32-1.73,3.43-1.86,3.99-.47,6.86,8.15,8.71,12.47l6.33,14.7c.44,1.02.53,2.27,1.41,3.19,10.42,2.91,26.59,5.3,36.8,3.64l11.21-1.82c-4.9-2.36-8.9-4.85-12.51-8.44l-10.51-10.43c-3.38-4.2-6.62-8.14-9.13-12.89l-12.61-7.93c-4.63-2.83-13.2-8.97-10.51-10.8,1.69-1.14,3.45-.31,2.94-1.57-1.78-4.37-3.82-8.44-3.93-13.15-.04-1.72.75-3.95,2.56-3.94,2.21.01,3.63,2.02,4.86,3.44l3.71,4.25c1.5,1.73,3.45,2.15,5.33,1.16,5.86-3.07,11.16,8.57,9.88,15.82l-1.74,9.81c-.13.74,1.67,1.42,2.43,1.56-.36.34-1.21,1.2-.85,1.63l10.04,11.99,5.87,5.75c5.28,5.17,14.31,13.08,21.25,11.66,1.12-.19.3-1.15-.54-.73-5.7-2.46-9.59-6.91-12.39-12.32-6.09-11.77-2.75-25.86-10.27-38.19l-6-8.02c-.48-.64.1-2.68.85-2.38,10.63,4.26,23.66,11.12,27.82,21.71,4.89,12.46,5.68,27.48,9.78,35.39.89,1.72,3.41,2.77,3.96,4.84l.91.28c5.89.7,11.31,2.51,16.41,5.57,5.06,3.03,9.77,6.48,13.21,11.27l10.33,14.39c-.02.93,1.14.5.54-.16l-1.62-11.47-.03-16.16c1.45-22.43,9.15-42.82,20.48-62.11-3.74-8.92-12.23-9.79-21.06-5.95l-3.48,1.51c-8.51,3.7-17.62,4.72-26.87,5.68-9.47.99-18.45-.93-27.14-5.1-8.83-4.23-16.21-10.37-23.67-16.75l-11.17-10.87c-1.6-1.56-3.89-3.32-4.28-5.6-.2-1.2,1.98-1.2,2.76-.88l16.21,6.86c8.97,3.14,18.06,5.33,27.42,7.11l5.48.53c2.3.22,3.92.21,6.18.02l6.41-.52,5.54-.52c9.94-.94,19.67,2.3,27.33,8.45,1.74,1.4,2.74,2.97,2.77,4.77,6.21-.99,12.57-.37,16.3,4.34.64-5.44-.95-10.34-2.99-14.98-1.49-.88-2.95-.39-4.41-.73l-14.18-3.32c-4.06-.95-7.54-3.62-9.74-7.29-8.46-14.15-8.42-29.82-22.38-43.68l-7.27-7.22-5.99-5.54-5.75-5.3c-6.46-5.95-12.51-12.18-17.64-19.28-1-1.39-.98-3.78-.19-5.12,3.32-5.56,19.16,0,26.6,4.23,11.92,6.77,23.04,14.54,33.3,23.58,12.8,11.29,19.2,25.47,22.05,42.13l2.49,14.54c.84,4.94,8.43,10.98,9.48,25.43l-1.08,4.97c-.08.37.25.92.31,1.16s.58.12.9-.37l14.55-22.43c12.94-19.95,24.28-38.82,26.81-63.18l.04-13.81c-1.77-18.76-12-36.8-22.9-52.18-1.38,1.34-2.8,2.21-4.62,2.98-8.92,3.76-18.31,5.93-28.04,6.88-18.66,1.83-36.15-5.42-52.67-13.37-5.16-2.48-12.15-4.68-11.11-8.08.3-.97,1.52-.87,2.6-1.18l30.35-8.63,10.09-2.43,3.95-.48c12.25-.16,29.41,8.36,41.27,14.66-3.81-6.37-8.62-11.08-13.75-15.82-7.49-6.94-15.74-12.34-25.53-15.46-4.92-1.57-9.77-3.1-14.99-3.47l-5.05-.35-4.49.37c-5,.41-9.49,2.15-13.89,3.9-2.31.92-3.17,1.81-4.43,3.78-2.65,4.15-7.6,6.01-12.37,6.54-6.21.69-9.5.4-13.8-5.23-2.69-3.53,1.54-6.79-2.23-8.85-3.73-2.11-4.92-6.66-2.19-10.26,3.89-1.07,7.99-2.01,12.1-1.19,4.91.89,9.4,2.55,13.82,4.69l11.38,5.5c7.17-2.57,14.76-3.73,22.65-2.49,9.39,1.48,18.3,4.4,26.52,8.92l1.61,1.03c.38.24.78.09.87-.16.11-.31-.04-.56-.35-.88l-5.7-5.9-13.92-14.48-6.64-6.94-1.79-2.28c-.67-.85-1.43,2.56-6.06,1.22-2.71-.78-4.5-2.29-6.53-4.1l-4.21-3.74c-4.77-4.24-12.31-10.64-11.07-16.1,3.46-1.95,1.07-5.62,5.54-6.25,2.42-.35.17-3.85,1.93-6.84,5.9,2.7,6.81,8.27,9.28,8.94,1.56.42,1.96,1.68,2.92,2.61,3.51,3.38,6.08,7.29,8.75,11.27,2.26,3.37,2.12,7.15.85,10.73l13.43,13.4,7.09,7.09,9.26,9.69,4.33,4.72,14.47,16.52c.38.45.74.55.96.22l-5.32-10.32-4.5-9.04-6.98-17c-1.56-3.79-2.44-7.77-2.59-11.89l-.34-9.19.2-5.29c.76-19.79,13.45-39.74,16.89-61.04l.33-10.59.73-.66c.17-.15.93-.17,1.17.18l5.28,7.64,3.54,7c2.83,7.09,4.56,14.43,5.31,22.13l.04,14.79c-.67,8.81-2.52,17.13-4.78,25.61l-4.85,18.2c-2.02,7.58-3.48,14.96-4.11,22.86l.58,6.41c.43,4.75,2.63,10.62,4.93,15.23-.47.52.24,1.06.52.48-.28-2.9-1.31-5.41-1.03-8.04.98-9.28,5.02-10.75,13.67-14.38.56-2.07,2-4.17,2.13-6.25l.52-8.49c.9-14.88,5.3-38.84,17.34-47.32l10.01-7.04,14.72-10.79c3.33-2.44,5.81-5.38,8.52-8.5l12.82-14.72c2.29-2.63,4.28-5.1,5.6-8.4.6-1.5,2.45-1.68,2.92-1.28.4.35.45,1.78.16,2.38l-2.62,5.37c-2.12,8.34-3.7,16.58-4.39,25.22l-.56,6.98-.49,6.95c-.69,9.74-2.17,19.15-4.3,28.61-.71,3.15-1.83,5.98-3.16,8.95-6.44,14.33-23.18,21.09-38.4,22.97l-10.98.16-3.92.44c-.15,2.31-1.55,3.59-2.94,5.25-4.25,5.05-13.92,4.89-13.27,15.29.42,6.77,2.59,12.97,5.45,19.04l1.47,3.12c10.32,14.65,19.35,32.95,21,50.92l.12,11.51c-1.11,15.34-6.17,29.58-13.26,43.15-5.65,10.81-12.32,20.44-18.88,30.65l-9.22,14.36c-6.51,10.13-11.7,20.78-15.98,32.02l-.66,2.09c-.26.86.79.91.62-.01,4.56-8.38,10.92-15.01,17.08-21.96l6.14-6.02c11.31-11.08,24.06-19.43,38.42-26.16l16.29-8.69,17.43-8.55c9.62-4.72,20.44-11.36,25.26-20.83l13.31-26.14c3.17-6.23,7.8-11.04,13.32-15.51-3.48-3.72-9.16-5.89-14.02-4.68-2.86,6.39-6.16,10.13-12.27,13.67l-5.62,5.77c-2.46,1.5-5.18-2.52-5.34-4.63-.12-1.62-.44-3.21-1.48-4.17l-4.27-1.3c-1.59-.48-2.48-3.71-1.39-5.27,1.79-2.56,4.9-3.72,7.91-4.08l13.82-1.63c2.05-.24,3.91.12,6.07-.46,5.32-1.43,10.92-.96,15.38,2.29.47.34.73.56,1.07.14-1.27-4.69-2.63-8.78-4.96-12.86-9.39-1.72-18.62-3.7-27.75-6.65-4.9-1.58-11.46-5.35-11.96-10.08,3.02-1.55,6.06-1.88,9.27-2.39.84-.97-1.33-2.71-.68-3.93.41-.75,4.65.52,5.43-1.23.98-2.2,2.03-3.89,4.42-4.73l1.02-1.24c.3-.37,1.39.2,2,.57,5.54,3.35,9.29,8.47,12.67,13.84l5,10.12c2.73,5.53,6.56,10.48,7.58,16.9.2.66.89.51.74.1l3.71-16.96,1.46-9.06c.97-6.05-4.13-7.85-5.8-9.75l-3.27-3.74c-2.97-4.68-4.07-10.05-5.12-15.44l-2.77-14.28c-.2-1.05-.03-1.96.66-2.45,3.3-2.35,9.39,2.92,12.35,8.95,2.42,4.92,6.92,5.33,12.18,3.46,2.69-.96,4.18.14,6.49.84,3.17.95,6.94-.15,10.23.33l3.06.45c3.28.48,1.81,6.73-.78,9.38l-11.13,11.33c-1.62,1.65-3.78,3.4-4.06,5.85-.2,1.77.3,3.39-.66,4.9l-3.7,5.84c-2.75,4.34-6.02,8.16-7.22,13.28-.62,2.64,1.72-1.61,7.02-3.98l5.25-2.34c.63-3.32,2.81-5.62,5.02-7.88l3.75-3.82c3.2-3.26,6.97-5.68,11-8.02,1.1-.64,2.58-.65,3.62.03.73.48,2.31,1.72,1.67,2.8l-2.62,4.41c-.85,1.44,2.87,2.65,3.29,3.61.51,1.15-1.48,1.87-1.5,2.93-.03,1.55,2.76,1.09,3.41,3.54.33,1.24-1.14,1.72-1.61,2.42-1.21,1.79-2.2,3.19-4.49,3.63l-10.78,2.09c-3.74.01-7.26-.99-10.84-2.38l-4.33,2.3c-1.91,1.01-3.77,2.25-5.09,3.92l-3.98,5.05-3,6c-.17.35-.42.67-.29.91.32.62.94.11,1.26.08l6.71-.76,8.02-.43,5.57-.45c6.52-.53,12.71-1.15,19.01-3.17l3.42-1.54c.89-.4,1.55.08,1.6.78.05.75-.14,1.43-1.03,1.8-2.25.95-3.85,2.73-5.63,4.35l-3.95,3.6-7.57,6.44c-5.42,4.61-13.36,7.27-20.22,5.9-6.7-1.33-11.64-5.35-14.75-11.57-3.72,3.73-6.23,8.04-8.53,12.72l-11.5,23.44c-4.33,8.83-14.47,15.88-23.42,20.16l-19.61,9.37-12.28,5.95c-.9-.37-1.48.77-.39.67,7.14.4,13.52,2.19,19.68,5.07l17.06,7.97,8.18,4.33c4.05,2.14,5.98.4,6.99,1.7.35.45.35,1.84-.69,1.86l-5.43.14-19.99,3.39c-10.72.66-23.22-1.57-27.56-11.49l-3.19-7.28c-.5-1.15-1.55-1.45-2.45-1.82-2.9-1.19-25.09,15.08-31.17,20.83l-5.67,5.36-6.61,6.5-8.41,9.53c-9.41,10.67-13.33,20.11-14.85,34.1l-.64,5.84.15,16.83c1.28,15.43,7.32,29.44,17.52,41.02l6.53,6.94c6.73,7.15,14.17,13.19,22.85,17.71l10.21,5.32c2.35,1.23,4.41,2.04,7.19,2.21l.74.35c12.84,6.16,18.52,12.41,27.67,23.39.18.46.79.26.72-.15-1.93-7.85-3.89-15.43-4.54-23.48l-.41-5.08-.02-10.45.46-8.03.51-5.51.53-4.93c.21-2,.74-3.88.22-5.94l-10.28-10.13c-3.36-3.31-7.12-4.6-11.37-6.34-4.26-1.75-7.86-5.07-11.5-7.9-.33-.26-2.88-4.07-5.08-3.25-.1-1.03-.65-3.21.09-4.29,1.82-2.64,5.41-1.97,7.59-.05.24.1,1.26-.74,1.13-.95l-.79-1.35c-.89-1.52-1.54-3.07-1.59-4.99-.04-1.67,2.06-3.93,3.84-3.75,2.36.23,5.73,6.24,6.75,3.25.65-1.91.21-5.07,1.44-2.52l1.96,4.06c1.58,3.27,5.53,1.23,10.18,6.01.46.26.96-.17.89-.91-.74-7.81.75-15.26,4.26-22.16.62-1.22,1.81-2.02,1.93-3.61.02-.27.3-.7.48-.77.34-.12.9.27,1.2.49l5.02,3.56c3.61,2.57,8.58-4.21,11.25-1.05,1.29-.65,3.27-.85,4.34-1.93,4.62-4.64,10.6-6.67,12.1-3.46,1.92,4.12-5.87,10.12-11.12,12.96-4.09,2.21-7.88,4.6-11.59,7.54.4,1.82,1.57,3.55,1.33,5.26-.92,6.66-4.09,12.11-8.24,17.22l-2.48,3.05c1.71,4.35,2.13,8.6,1.96,13.73,4.15-5.11,8.76-8.75,14.9-10.39,3.47-.93,6.78-2.27,9.45-4.56l11.58-9.93c1.66-1.42,3.88-3.12,6.05-3.36,5.62,1.01,8.06,3.12,10.45,8.22l-2.73,3.38c-1.58,1.96,3.17,3.6,2.21,6.94-.4,1.39-4.03,1.47-8.72,2.98-3.46,1.11-6.84,1.59-10.09,3.55-4.7,2.83-8.1-2.09-13.66-1.14-4.7.8-9.01,2.5-13.12,4.83-2.74,1.55-6.94,2.81-6.79,4.46.02.2.55.16.86.11l6.1-.88,4.48.51c6.89.79,12.38,5.24,16.32,10.69l5.92,3.51c.39.23,2.62.5,4.68,2.1.73-.3,1.5.64.36.77-2.25-.43-3.7.45-3.8,2.43-.08,1.47.48,2.66,1.02,4.06.35.49-.14,1.07-.57.67l-2.25-1.47c-.65-.43-1.73-.45-2.03.38-.74,2.01,1.49,4.57.82,6.07-.21.47-1.38.26-1.88.27-1.5.03-2.07,1.32-2.89,2.14-1.39,1.38-3.84-.7-4.98-3.83-1.76-2.45-3.03-5-3.44-8.06l-6.71-9.86c-1.85-2.72-8.2-3.54-12.59-3.33l-.42,4.9-.46,5.58v16.93s.52,4.99.52,4.99l4.95,25.94c.62,3.24,1.19,6.11,3.06,8.82-.72.46-.94.87-1.04,1.18-.13.4.39.86.67,1.35l.39.68c.74,1.28,2.74,1.71,2.99,3.22l.09.54c.03.16.05.36.17.49l9.85,11.62,13.43,16.59c5.47,6.75,9.7,14.06,13.74,21.74l.43.63.33.67.34.68c9.15,18.42,9.26,28.38,6.07,48.08l-.1,1.18c-.1,1.21.41-.39.98-1.14l6.31-8.41c4.24-5.64,15.59-9.55,22.74-18.77,1.57-2.03,3.8-3.65,4.79-6.1,1.48-3.66,1.53-7.49,1.86-11.35l.58-6.87c.94-11.09,3.57-21.5,8.52-31.35l2.86-5.7c4.25-8.46,9.52-16.11,15.85-23.42ZM290.11,174.2c-1.69-3.56-3.6-6.31-2.96-9.93-1.12-2.18-.42-4.36-.24-6.56l.54-6.52c1.45-11.69,4.52-22.76,8.1-33.95,2.36-7.39,4.22-13.17,1.36-20.51-2.09.89,1.55,5.12-.49,11.89l-4.99,16.51c-2.95,9.75-5.17,19.42-5.96,29.63-.27,3.45-.92,6.62.12,9.99.25,3.69,1.36,7.48,4.52,9.45ZM326.06,176.69c6.82-9.41,13.9-18.49,22.79-26.15l8.07-8.02c6.51-7.77,10.77-16.87,14.82-26.13l3.94-8.99c-2.82,1.95-3.58,5.1-4.92,7.99-4.19,9.07-8.46,17.9-14.89,25.61l-9.22,9.29c-2.02,2.03-4.44,3.5-6.03,6-5.44,6.2-11.51,12.09-14.56,20.38ZM280.23,226.36l5.79,1c-.02-.53-.47-.97-.95-1.11-7.83-2.33-15.69-3.34-23.82-4.19l-20.34-2.11-8.85-.26h-3.1c-2.65,0-5.36-.21-7.91,1.57,1.77,1.23,3.43.32,5.08.19,2.74-.22,5.54-.14,8.24.05l4.68.34,15.01,1.47,26.18,3.04ZM432.29,232.97l-.71-5.86c.38-1.08-1.22-1.15-1.05.02l1.73,11.84c.9-1.87.3-3.81.03-6.01ZM438.65,231.56c1.25-.53.14-1.87-.55-1.02-.85,1.86-1.43,3.79-1.39,5.88,1.49-1.09,1.53-2.83,1.94-4.86ZM402.15,253.32l-4.17-3.99c-.38.09-.75.5-.75.83,1.42,1.37,2.81,3.22,4.93,3.16ZM398.66,255.23c-1.11-1.2-2.13-1.64-3.56-1.9.81,1.33,1.94,2.2,3.56,1.9ZM457.13,258.6c-1.31-.55-2.04-.4-2.73.24,1.11,1.05,2.27.52,2.73-.24ZM460.24,259.09c.05-.68-.62-.97-1.24-.74-.78.29-1.13,2.02-3.21,2.99,1.29,1.45,4.32-.58,4.45-2.25ZM393.4,283.55c-1-.71-2.25.11-2.12.6.18.7,1.05.87,1.58.69.43-.14,1.07-.92.54-1.29ZM395.25,284.49c-.37.22-.13,1.44.11,1.28.35-.24.79-.39,1.06-.48.4-.14.3-.9-.07-.94-.43-.04-.8-.04-1.1.14ZM271.11,354.31l-5-6.5-8.57-17.91-10.59-22.42c-4.97-8.87-11.93-15.99-21.11-20.42-1.27-.61-2.82-1.27-4.2-.07,9.35,2.37,19.77,12.69,23.79,21.02l9.59,19.9,7.33,15.69c2.03,4.34,4.81,8.23,8.77,10.72ZM428.17,289.23c1.07,3.65,4.5,4.21,7.43,4.12,5.47,1.23,16.15-.54,20.39-4.82-5.3,2-10.15,3.68-15.71,3.56l-4.05-.08c-3.24-.07-5.41-.81-8.05-2.78ZM240.83,376.11l-4.72-.3c-11.15-1.44-21.67-4.33-32.16-8.29l-11.62-4.39c-.2-.07-.45-.7-.6-.67s-.49.35-.74.71c1.7,1.75,4.03,2.32,6.45,3.34,11.63,4.91,23.44,8.8,36.02,10.47l8.07.53c5.2.34,10.68-.57,14.4-4.11-5.98,2.39-9.22,3.09-15.11,2.72ZM374.03,381.15l-13.84-5.33-13.23-6.26c-.51-.24-.99-.18-1.37.09-.29.21-.51.42-.28.8.29.47.96.3,1.27.45l11.74,5.8c4.9,2.42,10.04,4.47,15.71,4.44ZM163.73,398.1c-1.05-1.03-1.36-1.87-1.33-3.19-1.11.54-1.25,1.51-.67,2.52.31.53.93,1.5,2,.67ZM160.62,400.31c-1.09-.82-1.5-1.65-2.32-1.94l-.41.43c.44.96,1.52,2.13,2.63,2.7,1.21.35,1.31-1.3.09-1.19ZM213.42,434.58c-5.16-4.2-7.82-9.31-10.05-15.01-2.27-5.83-3.97-11.44-3.39-18.08-2.86,1.18-1.91,3.82-1.73,5.65.86,8.53,5.35,19.67,11.47,25.59,1.05.81,1.88,2.58,3.69,1.84ZM268.36,508.06c.69.08.65-.36.45-.54-.16-.14-.45-.5-.79-.54l-21.01-2.93-17.06-1.65c6.14,2.82,12.44,2.92,18.71,3.47l6.84.6,12.86,1.59ZM349.1,569.86c-4.13.37-7.34,1.1-11.04.75-8.92-.1-17.31-2.58-25.48-6-1.58-.66-3.14-1.71-4.97-.43l7.78,3.1c9.86,3.93,24.92,7.01,33.71,2.58ZM474.66,604.88l6.01-12.8c1.66-3.53,3.1-7.4,5.49-10.51.28-.37,1.29-.49,1.01-1.21-.15-.4-.85-.9-1.17-.74-.24.12-.82.44-1.04.86-5.58,10.28-10.65,20.66-14.69,31.68-.89,2.43-1.88,4.71-1.31,7.12l5.7-14.41ZM333.37,690.38c3.66-.26,7.14-.06,10.51.09l10.46.46c4.61.2,8.94.67,13.21,3.05-1.05-3.11-10.09-4.33-14.63-4.57l-8.06-.44-15.03-.03-17.25,2.25-7.02.57c-2.13.17-4.03-.37-5.34-2.17-.59,4.06,6.35,3.93,11.87,3.21l15.49-2.01,5.8-.42Z"/>
  <path class="cls-1" d="M153.48,121.89c4.13-2.07,8.77-2.03,12.77-.74,3.16,6.89,12.02,14.22,19.19,12.63-5.54-1.17-9.74-3.37-13.39-7.13-3.39-3.49-6.25-7.48-5.28-12.07,1.48-7.03,10.21-3,17.65-.38,1.33.47,1.75,1,2.78,1.79l10.19,7.84c4.83,3.72,10.18,6.94,16.31,7.17-4.97-2.04-9.28-3.58-13.18-6.82l-12.16-8.88c-5.41-6.66-13.61-24.73-9.94-30.2.72-1.08,2.82-1.01,3.96-.87l4.11.53c2.38,5.58,5.03,10.87,8.64,15.79.48.66,1.05,1.5,2.12,1.49-3.45-4.81-5.86-9.92-8.47-15.14-1.47-2.93-.96-5.54,1.93-7.69,1.24-.92,3.17-2.47,4.94-2.84,3.31-.7,6.46,1.74,8.27,4.41,1.95,2.87,4.8,5.96,5.27,9.5.99,7.46,1.29,14.86,4.52,21.74,1.38,2.93,2.79,5.89,5.82,7.38l-4.01-6.17c-2.58-5.86-3.43-12.16-4.22-18.48-.45-3.62-.48-6.5,1.69-9.65,7.42-10.79,14.58-6.16,16.5-7.92,2.72-2.49,5.31-4.11,8.89-5.24,2.88-.91,5.8-1.97,8.9-.94,4.44,1.47,8.11,4.3,11.41,7.56,2.23,2.21,4.49,4.36,4.97,7.81-12.08-8.03-24.25-3.76-33.75,6.21-1.86,1.95-3.95,3.99-3.57,7.03,1.23-2.62,2.61-4.01,4.3-5.8,8.94-9.45,21.31-13.68,32.4-6-2.02,4.4-9.26,5.98-14.86,7.56-4.81,1.36-9.45,4.74-10.57,9.89-1.09,4.98,8.83,8.25,5.66,17.38-1.63,4.72-5.67,8.4-10.08,10.6-3.06-3.67-6.76-8.71-9.78-7.93-.49.13-1.17.76-1.23,1.63l-.36,5.12c-2.2.17-4.18,1.52-4.26,3.65-.07,1.95-1.59,2.32-2.64,3.5s.24,3.41,1.08,4.8c-5.38,5.78-12.2,10.63-19.92,12.67-3.73.99-7.28-.92-9.3-3.62l-8.78,1.76c-5.41.32-10.79-2-12.95-7.16-1.28-3.06,5.78-8.43,12.3-7.99.3-.25.2-1.22-.07-1.42-.24-.19-.64-.54-1.28-.53l-10,.13c-1.73.02-3.6.94-5.34.2-2.71-1.16-4.75-3.27-6.17-5.8-2.31-2.88-2.85-6.74-.99-10.34Z"/>
  <path class="cls-1" d="M171.45,244.7c1.44,4.11,1.99,8.91-1.92,11.85-2.58,1.94-8.43,2.52-10.96.31-3.06-4-4.34-13.7-5.39-14.02-2.18-.66-1.24,7.05.1,12.21-8.29-4.33-14.38-13.6-17.3-21.8-.99-2.8-2.63-5.48-2.87-8.47-.12-1.42-.77-1.77-1.28-2.93-2.58-5.89,4.85-14.51,9.82-20.37-2.99.89-4.56,3.66-6.62,5.9-2.76,3-3.82,7.08-6.33,10.13-1.53,1.86-4.94.53-6.55-.51-6.05-3.89-3.41-12.42.54-18.93,1.6-2.64,3.09-5.06,5.26-7.38,14.17-15.15,35.94-19.79,55.49-15.36-2.61,1.97-2.88,4.92-2.14,7.75.64,2.44,2.19,4.74,5.35,5.91-1.81,4.41-.14,8.95,4.12,11.26l-4.38,3.86c-1.35,2.59,1.55,18.03,3.36,23.48,1.14,3.43,2.63,6.53,2.81,10.22.23,4.73-1.47,9.77-6.38,11.31-1.9.6-5.31-1.12-5.8-2.78-1.84-6.25-2.82-12.55-4.08-18.7-1.08,6.41,1.11,12.19,2.69,18.23-2.12-2.03-5.84,0-6.68-2.85l-5.28-17.87c.49,6.82,2.14,13.04,4.42,19.56Z"/>
  <path class="cls-1" d="M113.82,452.29c-1.36-.52-3.11-.53-4.8-.15l-8.51,1.93c-10.23.27-28.4-4.71-28.01-13.48.08-1.87,1.7-3.35,3-4.86-2.34-4.41-1.62-9.16,2.61-12.07-2.03-1.23-3.61-3.15-2.7-5.08,1.1-2.34,3.65-3.22,5.62-4.49,2.31-1.47,4.53-2.53,7.35-2.09,4.73.74,8.45,2.93,13.17,4.69l-4.61-4.76c-2.72-2.81-4.96-6.16-5.98-10.07-.36-1.38.78-2.37,1.53-3.31,1.27-1.57-1.01-5.89,2.24-6.8,2.51-.7,4.99-.38,7.71.3-.36-2.72.31-4.84.73-7.35.51-3.06.98-6.43,3.37-8.64,1.74-1.61,4.34-.61,5.53,1.22l12.45,19.05,11.9,17.36c-5.55,3.1-4.44,12.3-.35,17.98-2.27,1.27-3.76,3.21-4.78,5.63-1.86,3.06-1.99,6.68.15,9.56-1.07,2.89-.84,6.19,1.95,7.92l-2.91,3.26-5.58,5.92-6.93,7c-1.64,1.66-4.52,1.37-6.65-1.27-4.93,3.73-10.17,7-16.32,7.3-6.18.3-12.28-1.05-12.98-6.45-.6-4.64,8.81-11.82,12.45-12.84l19.35-5.46ZM96.24,431.63c-3.36-2.39-6.66-4.6-10.69-4.47,1.98,1.9,4.27,1.84,6.42,2.74,1.41.59,2.44,2.25,4.27,1.72ZM96.42,437.42c-4.04-2.36-8.12-3.47-12.47-4.64.15,1.07,1.07,1.6,1.86,1.81l10.61,2.83Z"/>
  <path class="cls-1" d="M452.89,218.13l-7.67.03c-1.64,0-3.16-1.73-5.05-1.38l-6.87,1.29c-5.79,1.09-6.52-6.34-11.99-11.45-.64-2.3.36-6.42-2.16-8.41-2.52-1.99-4.57-4.26-6.57-6.91-2.67-3.55-5.74-6.73-7.56-10.87-4.17-9.47-1.37-19.16,4.05-18.14,4.22.79,6.64,4.44,9.23,7.24,1.33,1.44,1.76,2.1,2.16,4.07.74,3.65,3.54,6.67,5.8,9.55l5.69,7.27c-1.01-6.66-9.4-11.72-10.13-18.15,2.1-3.41,5.25-8.6,3.99-11.31l-.14-3.18c-1.16-4.78-.62-12.17,3.02-13.9,4.13-1.95,7.68.57,10.8,4.54,4.44,5.64,6.04,12.48,6.48,19.51.17,2.77.51,5.53.07,8.31-.72,4.55.1,10.02,1.69,9.97,3.47-.12,5.83-3.12,7.88-5.44l5.43-6.15c.56-.63,1.13-.93,1.89-.9.7.03.94.92,1.4,1.39,1.84,1.88,8.8.34,10.47,6.07.71,2.44.49,4.16-1.46,5.82l-9.35,7.97c-2.42,2.07-4.01,4.77-4.93,7.83,1.66-.54,1.81-2.3,2.82-3.31l6.51-6.52c2.12-2.12,4.8-3.39,6.67-5.93l2.07,1.82c9.33,5.12-6.24,20.11-13.57,26.32-1.49,1.27-2.92,3.6-4.9,3.87l-5.77-.92Z"/>
  <path class="cls-1" d="M171.28,519.58c-3.5-.44-5-7.82-5.67-12.69-.41-2.95.33-5.86-.89-8.89l-4.46,15.85-2.03,7.01-4.93,12.39c-1.59-.08-2.12-1.36-2.95-2.61-1.24,3.57-3.35,6.06-6.86,6.5-4.38.55-3.61-5.17-4.17-9.5-.27-2.08-.62-3.61.07-5.63l5.98-17.52,1.66-5.16c-.11-.12-.33-.3-.46-.36l-5.58,13.11-4.02,13.81c-.69,2.38-5.61,3.82-7.75,2.98-3.21-1.27-4.47-4.49-4.92-7.73-1.47-10.65.99-21.17,6.16-30.61,3.57-6.52,8.35-11.74,13.6-16.91,3.02-2.97,6.04-5.76,10.73-6.83l-.66,5.42c-.28,2.32,1.33,3.47,2.73,4.9.93.96,1.49,2.42,2.44,2.91,2.75,1.4,4.91-.74,7.63-.96.76,1.21,1.85,3.44,3.57,3.47,3.44.06,5.87-2.75,7.47-5.91,1.65,2.52,3.29,4.45,6.04,4.92,1.87.32,3.49-.52,4.25-2.05l2.94,8.87c2.49,7.52,4.93,14.74,5.94,22.71.42,3.35.8,7.24-1.9,9.81-1.12,1.06-4.85,1.23-6.07.01-7.74-9.87-10.69-22.15-10.89-34.52-1.89,5.6-.45,11.19.77,16.58l2.17,6.84c.91,2.88.23,8.37-1.99,8.37-1.06,0-1.7-.7-1.82-2.2l-2.82,2.72c-.86.83-2.07,1.05-3.3.9ZM142.19,487.54c-.51-.3-3.1,2.89-3.29,5.09,2.21-1.63,4-4.67,3.29-5.09ZM144.27,488.21c-2.74,1.33-5.36,6.97-5.09,7.35s.62.59,1,.46c-.02,0,3.62-5.03,4.09-7.82Z"/>
  <path class="cls-1" d="M446.96,490.47l5.87,4.93c2.14,1.79,3.68,4.63,2.6,7.46-1.97,5.17-7.58,4.32-9.16,5.04-1.1.5-.19,2.4-1.06,3.45-1.16,1.41-4.73.46-7.02-.88l-15.77-9.14c-3.78-2.19-6.22-5.4-8.62-8.98-.52-.63-1.89-.78-2.2-1.82,1.39-.44,2.94-1.14,3.29-2.07,1.46-3.92-2.15-5.05-2.1-7.29,1.67-1.72,3.98-3.8,3.19-6.46-1-3.38-3.76-5.53-6.7-7.72,5.79-8.23,13.13-14.81,21.66-19.66,4.58-2.61,11.78-4.72,14.56-1.85,2.06,2.12-.21,7.19-2.39,11.16l14.1-6.09c3.4-1.47,7.44-1.75,10.49.37,2.75,1.9,4.7,5.16,4.31,8.41-.51,4.35-2.74,7.86-5.79,10.88l1.83,3.01c1,1.63,1.9,4.07.69,5.91l-4.86,4.07c-1.25,1.04-.54,2.9-.73,4.35-.57,4.38-7.71,3.18-13.16,1.16-1.59-.59-3.04-.94-4.84-.56l1.8,2.32ZM434.71,471.01l8.99-2.12c-.04-.16-.07-.4-.05-.74l-4.51.87c-1.67.32-3.6.47-4.43,1.98ZM440.46,475.38c-.63-.05-1.03-.76-1.28-1.13-.14-.2-.71-.16-.98.52,1.4,1.9,4.6,2.65,6.58.98l-4.32-.37Z"/>
  <path class="cls-1" d="M343.17,256.03c-1.93-2.46-2.58-5.55-2.5-8.51,4.69-6.26,13.84-5.12,21.85-5.04-5.78-2.83-12.53-1.94-18.21.02-1.81.63-2.69,1.2-4.89.37-.77-.29-2.05-.26-2.58-1.07-1.3-1.97-.74-3.75.69-6.12-1.69-2.03-1.16-4.19.61-5.8s3.75-2.95,6.53-2.65c5.95.65,11.89,2.65,16.44,6.7.41.89,1.37.19.64-.57-3.98-4.35-9.44-6.23-14.96-7.3-2.31-.45-3.78-.01-6.08.39-3.46.6-7.6-.75-10.44-2.73-.9-.63-1.19-2.63-.71-3.31.91-1.31,2.49-1.65,3.83-2.63-5.62-4.49,1.63-5.08-.49-10.67-1.91-5.03-.36-9.7,3.27-13.31,3.47-3.44,8.1-6.08,13.07-4.66,7.43,2.13,13.19,9.88,14.65,17.34,1.43,7.28,3.01,15.29,10.24,18.28l-4.11-4.39c-3.16-5.11-4.41-11.03-5.08-17.17,1.79-3.6,5.96-4.96,9.57-3.32,7.63,6.95,4.61,19.85,15.64,25.49,3.39,1.74,4.54,6.99,4.38,11.34-2.6.47-3.97,2.35-4.64,5.02-3.16-1.16-5.89.29-6.12,2.59-.07.7.53,1.37.89,1.88-4.07.55-8.77,1.39-9.21,4.62-9.78-.27-19.19,1.56-28.09,5.73-1.1.52-3.31.56-4.17-.54Z"/>
  <path class="cls-1" d="M318.35,472.58c-4.1,1.69-8.12,2.69-12.41,3.3-5.2.74-10.1-.72-15.09-2.07-4.87-1.32-9.87-.92-10.79-6.81-.49-3.16,1.62-5.6,2.77-7.91l-2.18-9.04c-.35-1.45.6-3.4,1.28-4.56,2.76-4.72,7.51,1.01,13.49,2.54-4.98-4.68-8.41-10.92-9.13-18.27-.43-4.35,3.42-8.01,7.44-9.92l5.4,14.23c.22-.09.41-.28.5-.42l-4.42-13.79c.41-1.62,4.74-2.22,5.26-.4l5.55,19.18c-.19-6.98-2.42-13.3-4.25-20.02,3.21-.13,1.39-7.67,7.07-8.2,6.69-.63,12.12,14.75,10.43,25.23-.72,4.44.41,8.95,1.17,13.56,1.47-.96.23-2.31.24-3.26l.11-9.86,1.54-5.41c.61-2.14.99-4.73,2.65-6.27l5.73-2.89c1.91-1.85,3.82-4.78,6.98-4.95,3.29-.18,6.56,2.66,7.75,5.47-.31,3.57-1.16,6.63-2.48,9.88l-1.65,5.3-3.86,12.59c-.95,3.11-.85,6.34-2.19,9.3-1.09-1.86-2.29-3.54-4.22-4.02-2.51-.63-4.52.76-5.71,2.51-1.38,2.04-.88,4.65.27,7-2.31-.75-4.72-.37-6.3.96-1.84,1.56-2.31,4.02-.95,7.04ZM302.27,457.17l-3.05-2.2c-.43.6-.23,1.45.21,1.65.92.42,1.86.84,2.84.56ZM299.57,458.8c-1.97-1.38-3.65-1.82-5.63-1.67,1.54,1.5,3.76,2,5.63,1.67Z"/>
  <path class="cls-1" d="M510.83,249.15c2.16.67,3.41,3.8,3.81,5.65.48,2.24-1.85,3.82-2.64,5.15.9,3.66,1.52,8.48-.6,10.5-2.89-4.27-7.63-4.36-12.09-4.84-3.44-.37-5.49-4.09-8.19-5.9.71,4.16,5.4,7.77,9.5,8.03,3.21.2,5.59.07,8.19,2.05,3.98,3.04,1.93,8.57.67,9.62-1.09.9-2.26,1.1-3.75,1l-7.03-.47c-9.14-.61-9.21-11.84-11.68-12.34l-15.73-3.13c.94-3.12.4-4.18-2.03-5.92.22-1.26.76-2.55.35-3.81-.28-.87-1.43-1.66-2.96-2.01.61-2.42,3.96-4.41,2.16-6.97-1.11-1.58-2.56-2.47-4.38-3.36,1.54-5.58,2.22-10.84,2.5-16.36.32-6.26,2.46-14.23,7.6-16.87,1.95-1,4.37-.25,5.91,1.04,4.73,3.99,1.05,10.5,2.63,14.44.56,1.4,2.97,2.32,3.13,4.02.35,3.72-.12,6.96-2.66,9.52l-7.22,7.27c-1.41,1.42-2.98,2.97-2.8,5.19l10.37-10.55c2.9-2.95,4.37-6.29,3.4-10.19.41-2.01,2.18-4.12,3.02-5.89,2.48-5.2,8.87-11.34,13.72-10.46,6.11,1.1,6.37,10.94,10.12,16.37,1.11,1.61,2.91,2.45,4.79,3.2,2.47.99,4.81,3.71,3.44,6.36-1.69,3.29-5.45,4.8-8.18,6.76-2.13,1.53-3.26.74-5.55.71-10.55-.11-22.18,7.35-20.21,8.37-.1-.05,13.79-8.85,22.41-6.19ZM504.61,228.46c-1.54-1.97-4.94.94-4.87,3.93,1.76-1.29,1.78-3.36,4.87-3.93ZM508.7,231.13c-1-2.1-5.66,1.89-8.61,4.57,2.85-.07,5.04-3.47,8.61-4.57ZM502.1,258.12c-.2-1.06-1.88-1.09-1.89-.25,0,.73,1.78.69,1.89.25ZM502.97,261.87c-1.58-.87-2.71-1.12-4.04-.76.94,1.67,2.72,1.66,4.04.76Z"/>
  <path class="cls-1" d="M390.49,435.38c-4.52-1.4-8.36.51-11.27,3.76-.92,1.03-2.68,1.38-3.91,1.84-1.63-1.4-3.23-1.3-4.76.01-1.62,1.39-4.52,2.22-6.41.99-2.03-1.32-3.52-2.86-5.86-3.52.45-2.6-1.13-4.5-1.88-6.83-2.39-7.39-4.05-14.8-4.83-22.62-.47-4.68,1.84-10.39,6.59-11.34,5.5-1.09,10.17,3.35,12.31,7.86.76,1.61,3,1.05,4.09.4l6.89-4.1,8.17-1.8c4.22-.93,7.52,1.32,9.96,4.48,3.13,4.06,3.27,9.12.74,13.67l-6.79,12.2-3.04,4.99ZM374.42,424.29c.57-4.24-.3-11.72.02-11.33-.3-.38-.54-.5-.84-.26-.17.14-.48.44-.48.8l.07,7.96c0,.91.06,2.06,1.23,2.82ZM381.75,412.07c-2.68,2.28-2.84,5.42-2.84,8.3,1.72-2.71,2.6-5.42,2.84-8.3Z"/>
  <path class="cls-1" d="M410.52,561.26c-2.59,1.27-5.25-3.11-7.82-2.56s-3.22,5.83-6.14,6.71c-1.65.49-3.45.08-5.05-.81-5.73-3.21-8-10.42-6.17-16.81,1.2-4.19,1.83-8.14.93-12.26,3.93.96,3.36-2.82,6.41-2.42,1.38.18,2.54-1,2.31-2.47-.16-1.03-.59-1.87-.28-3.1l2.72,1.74c.6.38,1.31.4,1.71.08.37-.3.75-1.1.5-1.78l-1.89-5.2c-.24-.66.28-1.13.58-1.37.58-.47,1.26-.47,2.08-.3l6.7,1.41c1.27.27,2.45-.42,3.37-.86l9.14,2.31c5.12,1.3,10.31,2.35,14.59,5.3,2.41,1.66,3.46,4.47,1.54,6.96-4.42,5.75-14.25,12.99-20.04,10.54-4.64-1.96-6.83-6.45-9.46-10.64.08,6.03,5.14,9.39,9.22,12.58,1.97,1.53,0,5.77-1.62,6.81-2.78,1.79-1.17,5.05-3.37,6.14ZM396.07,552.23c1.17-2.49.24-4.92-1.25-6.44-.24,2.5.38,4.52,1.25,6.44ZM392.07,550.75c1.06-.93,1.51-2.23.59-3.48-.67,1.06-1.07,1.96-.59,3.48Z"/>
  <path class="cls-1" d="M356.3,315.53c-.84-1.86.49-3.75,1.51-5.22l-2.01-.92c-1.81-.83-1-8.57,6.28-11.12l5.48-1.92c-3.75-1.59-6.45,1.36-9.69,2.23-4.52,1.21-14.5-2.47-11.9-7.33,4.08-1.17,8.37-.04,12.75.62-1.45-1.86-3.85-2.03-6.1-2.04l-8.43-.06c-1.01,0-6.91-3.93-5.35-7.23,2.02-4.26,6.87-6.18,11.51-6.47,10.32-.65,16.4,5.56,25.35,6.88-.65,1.25-.53,2.24-.27,3.53,1.27,6.19,7.08,2.92,7.12,5.98.04,3.61,1.87,6.99,5.95,8.1l-3.9,6.8-4.64,5.86c-2.32,2.94-4.34,5.85-7.35,8.18-1.95,1.51-5.18,2.27-7.27.78-2.1-1.5-2.68-4.02-3.84-6.41-1.28,1.4-4.29,1.74-5.19-.25ZM373.01,307.76c.38-.34.75-.78.59-1.12-.2-.41-1.14-.45-1.65.09-.36.37-.43.86-.34,1.37.03.19.5.49.72.28l.69-.63Z"/>
</svg>