<?xml version="1.0" encoding="UTF-8"?>
<svg id="Layer_1" data-name="Layer 1" xmlns="http://www.w3.org/2000/svg" viewBox="0 0 595.28 841.89">
  <path d="M118.08,828.08c21.09-22.33,42-38.95,68.51-54.27l30.22-15.75,26.87-13.62c5.4-2.74,10.11-6.12,14.76-9.94,3.23-2.66,5.96-5.73,8.06-9.28,2.45-4.13,2.57-8.73.49-13.04-4.86-10.1-18.94-22.51-28-30.27l-22.47-19.24c-12.86-11.01-25.28-22.09-36.91-34.42-5.46-5.8-9.73-12.43-12.58-19.81-6.14-15.88,4.43-31.81,15.97-42.8l12.53-10.65,23.62-18.45c11.35-8.26,22.24-16.59,32.82-25.81l18.05-17.54c17.39-18.22,32.4-38.42,44.97-60.27,13.66-23.73,19.1-45.77,19.09-73.1,0-15.76-1.95-32.55-10.92-45.75l-11.4-16.77-8.06-10.46c3.62-3.01,7.24-4.95,11.27-6.85l7.56-2.48,5.33,2.48c.94,4.44,3.38,7.84,6.48,10.93l9.23,9.22,4.08,4.49c8.19,9,15.36,18.6,21.04,29.44,7.17,13.69,10.52,28.63,9.6,44.07-.7,11.74-2.9,23.17-7.81,33.82l-5.49,11.93c-5.72,14.18-12.67,27.48-20.92,40.35l-9.09,14.17c-8.16,12.73-15.78,25.54-22.56,39.13-7.7,15.42-13.48,31.36-18.11,48.01.22,21.44,11.11,36.14,28.56,47.53,11.58,7.56,23.73,13.44,36.55,18.65l41.59,14.75,37.64,12.52c10.93,3.64,21.01,8.51,31.08,14.06,21.67,11.94,40.54,28.58,52.84,50.2,6.73,11.84,11.57,24.22,14.54,37.52,5.05,22.93,1.96,46.27-4.85,68.36H117.41s.68-1.05.68-1.05Z"/>
  <path d="M339.62,193.71l-35.39-40.89-1.24-.83,2.6-6.3-.57-.51c-.11-.1-.46.21-.63.37l-9.9,22.17-28,64.06-118.72-53.63c-.61-.28-1.94-1.5-1.43-1.97l60.26-56.21,8.04-7.05c9.47,2.78,18.61,5.51,27.75,9.03l14.57,4.83,45.98,15.98c1.27.44,2.25,1.39,3.2,2.38l53.34,55.31c1.11,1.15,1.7,2.01,2.51,3.33l-4.66.47-8.79-.02-8.92-10.52Z"/>
  <path d="M321.36,235.79c0-.75-.82-1.57-1.29-1.33l-19.05,9.9,1.55,41.44-28.65,14.84-5.4,2.53.07-19.07c.63-17.24.42-34.3-.71-51.56l34.64-79.35,40.32,46.53,3.81,4.22-.43,3.84-3.68,55.06c-.09,1.58-.79,2.64-2.1,3.33l-18.95,9.96-.15-40.33Z"/>
  <path d="M267.3,274.7l-.29,28.1-83.4-39.76-11.52-5.78-1.54-.4c-.37-.1-.49-1.06-.48-1.72l.88-64.81,93.46,42.28,2.52.77.41,14.49-.04,26.82Z"/>
  <path d="M303.82,285.52l-.27-12.59-.91-27.6,16.91-8.68.33,40.22c-5.96,1.95-11.43,4.82-16.06,8.64Z"/>
</svg>