<?xml version="1.0" encoding="UTF-8"?>
<svg id="Layer_1" data-name="Layer 1" xmlns="http://www.w3.org/2000/svg" viewBox="0 0 595.28 841.89">
  <path d="M129.69,538.77c5.77,8.71,10.49,16.09,13.13,26.31,1.57.75,2.86-.01,4.29-.6,4.26-1.74,8.7-2.51,13.28-3.35,8.61-1.57,17.07-1.85,25.73-1-1.58-2.8-3.54-4.8-5.88-6.56l-5.77-4.35c-7.13,1.17-14.19-1.27-18.74-6.97-1.11-1.39-.2-3.94.48-5.17l-1.58-1.76c-.35-.39-.5-1.64-.3-2.12s1.01-1.1,1.57-1.47l-.98-1.79c-.5-.92.23-2.12,1.22-2.59-1.46-1.67-2.37-3.22-2.51-5.6,1.39-1,2.95-1.51,4.66-2.07,6.87-2.23,7.46-9.89,12.11-14.94-2.9-1.78-4.95-4.66-6.27-7.96-1.98-4.92-2.33-9.88-1-15.15,3.86-15.31,14.88-28.07,29.31-34.48,15.95-7.08,33.68-7.26,49.81-.67,7.23,2.95,13.58,6.95,20.19,11.13l19.36,12.27c4,2.53,8.19,4.29,12.74,5.48,7.9,2.08,13.86-2.5,19.42-8.06,4.97-4.97,10.02-9.54,15.76-13.61s12.26-6,18.93-3.01l7.07,3.16c6.11,2.73,12.89,3.23,18.12-1.14,3.05-2.54,5.5-5.64,7.43-9.17.73-1.34.94-3.16,1.2-4.6l.12-.65c.03-.14.51.08.74.17,2.04,2.85,2.22,6.4,1.46,9.9-2.56,10.15-11.29,18.22-20.97,21.86-5.15,1.93-10.36,3.16-15.83,3.93-4.35.61-8.51,1.36-12.64,2.71s-6.77,4.29-7.74,8.27l-1.27,8.02-3.03,22.2c-.48,3.51-1.58,6.71-2.8,9.99-2.18,5.85-5.6,10.88-10.22,15.02l-2.3,2.48-5.75,5.51c-1.21,1.16-2.43,4.02-1.37,4.96s6.33-2.97,8.81-4.92c6.72-5.3,11.68-11.91,15.08-19.77l7.24-16.74c3.78-8.73,9.38-16.2,16.41-22.56,5.79-5.23,12.64-8.44,20.38-9.69s15.23-2.9,22.58-5.88,14.47-6.69,21.26-10.94c1.16-2.67,2.41-5.15,4.24-7.34,2.17-2.59,4.76-2.2,4.95-1.37l.51,2.19c7.79-5.88,14.87-12.37,21.4-19.69,7.38-8.28,14.13-16.81,20.28-26.02,14.39-21.54,20.03-51.62,11.63-76.33-1.06-3.11-3.66-9.22-5.01-9.1-.86.08-.68.84-.72,1.75-.38,8.03-2.85,15.82-7.13,22.59-2.53,4-6.09,6.94-9.9,9.59l-5.88,4.72c-.52.42-1.33.87-1.85.99l-.69.16-4.07,9.17c-1.18,2.62-1.89,5.24-2.45,8.09-.24,1.21-1.29,2.81-2.68,2.25-2.57-1.03-4.21-6.2-5.11-9.69-.13-.51-.46-.8-.48-.08l-2.78,12.8c-2.5,7.43-5.97,14.31-10.68,20.64-7.32,9.84-19.3,15.58-31.52,15.12-5.27-.2-10.05-1.87-14.05-5.1-5.31-4.29-8.82-10.2-10.31-16.84l-1.2-8.08.02-3.87.86.06c2.03,5,7.32,7.85,12.6,7.05s6.72-8.03,6.27-13.34c-.34-4.03-.95-7.92-2.47-11.64l-6.79-16.56c-5.35-13.04-13.36-25.61-7.15-40.26,1.67-3.94,3.92-7.31,6.73-10.55,7.49-8.66,16.42-15.58,26.41-21.17,5.8-3.25,11.61-5.67,17.93-7.64,3.42-1.07,6.62-1.92,10.17-2.27l1.41-8.81c.34-6.1.23-11.93-.5-17.97-1.02-8.48-4.91-16.05-11.37-21.6l-10.06-7.52-14.55-10.07c-16.09-12.9-26.17-30.83-25.27-51.84.45-10.58,3.22-21.27,11.58-27.49.31.33.65.92.74,1.19-.61,4.21.34,7.78,1.8,11.65,4.41,9.85,11.31,18.33,20.14,24.53,3.62,1.99,7.09,3.4,10.94,4.82.19,0,.57,0,.53-.12l-.18-.58c-1.6-5.19-2.32-10.43-1.87-15.86.52-6.32,1.86-12.36,4.58-18.06,1.14-2.4,3.11-5.28,5-5.05,1.99.24,2.82,3.69,3.37,6.43,1.79,8.87,4.06,18.57,9.35,25.73,6.44.64,9.27,5.6,11.73,11.07,3.19,2.46,7.15,3.84,11.03,4.95.83.24,2.21.11,3.08.12,3.54.03,6.17,2.51,6.5,5.99l.75,7.88.06.69c.01.12.32.09.34-.02l.12-.69c1.87-4.55,3.94-8.84,6.45-13.02,2.2-3.03,5.59-7.5,8.48-6.82s4.03,6.58,4.31,10.29l1.33,17.52c.57,7.53,2.08,14.73,4.8,21.73,1.43,3.68,3.67,6.53,6.36,9.34l7.33,7.68c5.34,6.68,7.53,15.11,6.33,23.56-.98,6.9-2.94,13.24-6.29,19.33l-7.13,11.48,1.14,8.81c.45,3.48-.77,6.87-1.13,10.23l3.39,13.39,4.74,17.02,6.26,24.44c4.04,18.45,5.77,37.12,4.35,56.07-1.96,26.15-10.25,51.27-23.83,73.6-14.81,24.36-39.72,48.53-62.88,64.95l-15.25,9.45c-6.97,3.87-13.93,7.27-21.26,10.34l-1.31.55c-.55.11-.48.26.04.29l3.72.64c.7.12,1.78,1.12,1.82,1.77.33,4.57-13.59,3.83-19.14,3.64-1.34-.05-2.71.03-3.68.71l-.46.32-.39.24c-7.11,4.44-14.69,7.9-22.68,10.48l-.55.18c-7.72,2.49-15.56,3.84-23.68,4.44l-.64.05-.51.05-.53.06-.57.06-13.74.42-13.74.04c-.13.02-.7.1-.69.1,0,0,.28.46.36.57,1.72,2.21,3.35,5.03,3.76,7.88.61,4.22-.43,8.05-2.99,11.35-2.64,3.39-5.82,6.11-9.57,8.32-6.77,4-13.94,6.62-21.62,8.41l-19.35,3.65c-4.85.92-9.43,1.9-14.06,3.49-2.42,2.04-5.11,3.23-8.15,4.04-6.18,1.99-12.31,3.13-18.83,3.47-3.99.21-7.86-.2-11.83-.79-4.96-.74-9.48-2.49-13.68-5.18l-8.89-6.48c-.62-.45-1.15-1.62-1.07-2.28.1-.85,1.29-1.47,2.27-1.49l14.67-.29c4.43-4.88,11.16-5.7,16.76-2.3l2.16,1.67c1.83,1.41,4.42,1.93,6.63,2.57,3.02.88,5.76.46,8.52-.78l13.03-5.82,26.2-11.18,3.1-1.78c.89-.51.75-1.89.29-2.8l-1.56-3.12c-.07-.15-.17-.64-.2-.78-.06-.29-4.89,4.6-9.64,6.21s-10.15,1.19-14.86-.99c-4.46-2.06-8.35-4.81-12.04-8.07l-16.27-14.39c-3.89-3.44-8-6.06-12.43-8.66-2.36-1.39-4.32-3.11-6.12-5.15-12.18,2.18-24.92.59-37.09-1.2-5.37-.79-10.33-.65-15.69-.05h-7.56s-2.05-1.19-2.05-1.19c-2.63-1.52-5.04-3.15-6.97-5.5-5.88-7.16-7.33-16.53-8.53-25.67l-2.93-22.29c-1.16-8.8-3.66-17.09-6.45-25.5l-11.75-7.44c-6.85-4.34-10.17-13.66-10.47-21.62l-.15-3.87c-.02-.46.59-1.32.99-1.51,2.32-1.06,6.28,3.74,7.93,7.57,1.88,4.37,4.08,8.44,6.96,12.23-.39-3.44-.94-7.58,1.36-8.29.45-.14,1.59.11,1.88.5l2.62,3.5c1.52,2.03,3.03,3.82,5.39,4.84,2,.87,3.49,2.31,4.25,4.4.91,2.83,1.04,5.69.76,8.72,1.8,7.4,4.45,14.25,8.62,20.55l10.25,15.49Z"/>
</svg>